<mxfile host="app.diagrams.net" modified="2023-04-19T21:48:17.822Z" agent="Mozilla/5.0 (Windows NT 10.0; Win64; x64) AppleWebKit/537.36 (KHTML, like Gecko) Chrome/111.0.0.0 Safari/537.36 OPR/97.0.0.0" etag="SocfVOj4GVuxAx9etRKQ" version="21.2.1" type="device">
  <diagram id="uZZchXa6cHjKWzwC7peQ" name="Page-1">
    <mxGraphModel dx="2316" dy="-269" grid="1" gridSize="10" guides="1" tooltips="1" connect="1" arrows="1" fold="1" page="1" pageScale="1" pageWidth="850" pageHeight="1100" math="0" shadow="0">
      <root>
        <mxCell id="0" />
        <mxCell id="1" parent="0" />
        <mxCell id="2" value="" style="group;recursiveResize=0;" parent="1" vertex="1" connectable="0">
          <mxGeometry x="-790" y="1150" width="1680" height="1440" as="geometry" />
        </mxCell>
        <mxCell id="3" value="" style="shape=folder;fontStyle=1;spacingTop=10;tabWidth=90;tabHeight=29;tabPosition=left;html=1;whiteSpace=wrap;" parent="2" vertex="1">
          <mxGeometry y="1" width="1680" height="1439" as="geometry" />
        </mxCell>
        <mxCell id="4" value="&lt;b&gt;Serveur&lt;/b&gt;" style="text;html=1;strokeColor=none;fillColor=none;align=center;verticalAlign=middle;whiteSpace=wrap;rounded=0;" parent="2" vertex="1">
          <mxGeometry width="60" height="30" as="geometry" />
        </mxCell>
        <mxCell id="5" value="" style="group" parent="2" vertex="1" connectable="0">
          <mxGeometry x="20" y="60" width="800" height="340" as="geometry" />
        </mxCell>
        <mxCell id="6" value="" style="shape=folder;fontStyle=1;spacingTop=10;tabWidth=100;tabHeight=29;tabPosition=left;html=1;whiteSpace=wrap;" parent="5" vertex="1">
          <mxGeometry y="0.84" width="800" height="339.16" as="geometry" />
        </mxCell>
        <mxCell id="7" value="&lt;b&gt;Game Template&lt;/b&gt;" style="text;html=1;strokeColor=none;fillColor=none;align=center;verticalAlign=middle;whiteSpace=wrap;rounded=0;" parent="5" vertex="1">
          <mxGeometry width="100" height="25.05" as="geometry" />
        </mxCell>
        <mxCell id="8" value="&lt;p style=&quot;margin:0px;margin-top:4px;text-align:center;&quot;&gt;&lt;b&gt;GameTemplateService&lt;/b&gt;&lt;/p&gt;&lt;hr size=&quot;1&quot;&gt;&lt;div style=&quot;height:2px;&quot;&gt;&lt;/div&gt;" style="verticalAlign=top;align=left;overflow=fill;fontSize=12;fontFamily=Helvetica;html=1;whiteSpace=wrap;" parent="5" vertex="1">
          <mxGeometry x="550" y="174" width="140" height="46" as="geometry" />
        </mxCell>
        <mxCell id="9" value="&lt;p style=&quot;margin:0px;margin-top:4px;text-align:center;&quot;&gt;&lt;b&gt;GameTemplateSchema&lt;/b&gt;&lt;/p&gt;&lt;hr size=&quot;1&quot;&gt;&lt;div style=&quot;height:2px;&quot;&gt;&lt;/div&gt;" style="verticalAlign=top;align=left;overflow=fill;fontSize=12;fontFamily=Helvetica;html=1;whiteSpace=wrap;" parent="5" vertex="1">
          <mxGeometry x="70" y="80" width="150" height="46" as="geometry" />
        </mxCell>
        <mxCell id="10" value="&lt;p style=&quot;margin:0px;margin-top:4px;text-align:center;&quot;&gt;&lt;b&gt;GameTemplateController&lt;/b&gt;&lt;/p&gt;&lt;hr size=&quot;1&quot;&gt;&lt;div style=&quot;height:2px;&quot;&gt;&lt;/div&gt;" style="verticalAlign=top;align=left;overflow=fill;fontSize=12;fontFamily=Helvetica;html=1;whiteSpace=wrap;" parent="5" vertex="1">
          <mxGeometry x="328.26" y="80" width="161.74" height="46" as="geometry" />
        </mxCell>
        <mxCell id="11" value="&lt;p style=&quot;margin:0px;margin-top:4px;text-align:center;&quot;&gt;&lt;b&gt;GameTemplateModule&lt;/b&gt;&lt;/p&gt;&lt;hr size=&quot;1&quot;&gt;&lt;div style=&quot;height:2px;&quot;&gt;&lt;/div&gt;" style="verticalAlign=top;align=left;overflow=fill;fontSize=12;fontFamily=Helvetica;html=1;whiteSpace=wrap;" parent="5" vertex="1">
          <mxGeometry x="273.39" y="220" width="143.48" height="46" as="geometry" />
        </mxCell>
        <mxCell id="12" value="Use" style="endArrow=open;endSize=12;dashed=1;html=1;rounded=0;exitX=1;exitY=0.5;exitDx=0;exitDy=0;entryX=0.5;entryY=0;entryDx=0;entryDy=0;" parent="5" source="10" target="8" edge="1">
          <mxGeometry width="160" relative="1" as="geometry">
            <mxPoint x="218" y="390" as="sourcePoint" />
            <mxPoint x="444" y="147" as="targetPoint" />
          </mxGeometry>
        </mxCell>
        <mxCell id="18" value="Use" style="endArrow=open;endSize=12;dashed=1;html=1;rounded=0;exitX=0.5;exitY=0;exitDx=0;exitDy=0;entryX=0.75;entryY=1;entryDx=0;entryDy=0;" parent="5" source="11" target="10" edge="1">
          <mxGeometry width="160" relative="1" as="geometry">
            <mxPoint x="477" y="113" as="sourcePoint" />
            <mxPoint x="660" y="273" as="targetPoint" />
          </mxGeometry>
        </mxCell>
        <mxCell id="19" value="Use" style="endArrow=open;endSize=12;dashed=1;html=1;rounded=0;exitX=1;exitY=0.5;exitDx=0;exitDy=0;entryX=0.5;entryY=1;entryDx=0;entryDy=0;" parent="5" source="11" target="8" edge="1">
          <mxGeometry width="160" relative="1" as="geometry">
            <mxPoint x="531" y="238" as="sourcePoint" />
            <mxPoint x="442" y="136" as="targetPoint" />
          </mxGeometry>
        </mxCell>
        <mxCell id="20" value="Use" style="endArrow=open;endSize=12;dashed=1;html=1;rounded=0;exitX=0.5;exitY=0;exitDx=0;exitDy=0;entryX=0.5;entryY=1;entryDx=0;entryDy=0;" parent="5" source="11" target="9" edge="1">
          <mxGeometry width="160" relative="1" as="geometry">
            <mxPoint x="531" y="238" as="sourcePoint" />
            <mxPoint x="442" y="136" as="targetPoint" />
          </mxGeometry>
        </mxCell>
        <mxCell id="21" value="Use" style="endArrow=open;endSize=12;dashed=1;html=1;rounded=0;exitX=0;exitY=0.5;exitDx=0;exitDy=0;entryX=0.5;entryY=1;entryDx=0;entryDy=0;" parent="5" source="8" target="9" edge="1">
          <mxGeometry width="160" relative="1" as="geometry">
            <mxPoint x="531" y="238" as="sourcePoint" />
            <mxPoint x="442" y="136" as="targetPoint" />
          </mxGeometry>
        </mxCell>
        <mxCell id="24" value="" style="group" parent="2" vertex="1" connectable="0">
          <mxGeometry x="20" y="430" width="800" height="320" as="geometry" />
        </mxCell>
        <mxCell id="25" value="" style="shape=folder;fontStyle=1;spacingTop=10;tabWidth=90;tabHeight=29;tabPosition=left;html=1;whiteSpace=wrap;" parent="24" vertex="1">
          <mxGeometry y="0.84" width="800" height="319.16" as="geometry" />
        </mxCell>
        <mxCell id="26" value="&lt;b&gt;Game Manager&lt;/b&gt;" style="text;html=1;strokeColor=none;fillColor=none;align=center;verticalAlign=middle;whiteSpace=wrap;rounded=0;" parent="24" vertex="1">
          <mxGeometry width="94.73684210526315" height="25.05" as="geometry" />
        </mxCell>
        <mxCell id="27" value="&lt;p style=&quot;margin:0px;margin-top:4px;text-align:center;&quot;&gt;&lt;b&gt;GameManagerService&lt;/b&gt;&lt;/p&gt;&lt;hr size=&quot;1&quot;&gt;&lt;div style=&quot;height:2px;&quot;&gt;&lt;/div&gt;" style="verticalAlign=top;align=left;overflow=fill;fontSize=12;fontFamily=Helvetica;html=1;whiteSpace=wrap;" parent="24" vertex="1">
          <mxGeometry x="239.9968421052631" y="160" width="136.8421052631579" height="46" as="geometry" />
        </mxCell>
        <mxCell id="28" value="&lt;p style=&quot;margin:0px;margin-top:4px;text-align:center;&quot;&gt;&lt;b&gt;GameManagerGateway&lt;/b&gt;&lt;/p&gt;&lt;hr size=&quot;1&quot;&gt;&lt;div style=&quot;height:2px;&quot;&gt;&lt;/div&gt;" style="verticalAlign=top;align=left;overflow=fill;fontSize=12;fontFamily=Helvetica;html=1;whiteSpace=wrap;" parent="24" vertex="1">
          <mxGeometry x="3.935263157894731" y="114" width="147.36842105263156" height="46" as="geometry" />
        </mxCell>
        <mxCell id="29" value="&lt;p style=&quot;margin:0px;margin-top:4px;text-align:center;&quot;&gt;&lt;b&gt;GameManagerModule&lt;/b&gt;&lt;/p&gt;&lt;hr size=&quot;1&quot;&gt;&lt;div style=&quot;height:2px;&quot;&gt;&lt;/div&gt;" style="verticalAlign=top;align=left;overflow=fill;fontSize=12;fontFamily=Helvetica;html=1;whiteSpace=wrap;" parent="24" vertex="1">
          <mxGeometry x="151.30526315789473" y="40" width="135.01052631578946" height="46" as="geometry" />
        </mxCell>
        <mxCell id="33" value="&lt;p style=&quot;margin:0px;margin-top:4px;text-align:center;&quot;&gt;&lt;b&gt;BaseInstanceManager&lt;/b&gt;&lt;/p&gt;&lt;hr size=&quot;1&quot;&gt;&lt;div style=&quot;height:2px;&quot;&gt;&lt;/div&gt;" style="verticalAlign=top;align=left;overflow=fill;fontSize=12;fontFamily=Helvetica;html=1;whiteSpace=wrap;" parent="24" vertex="1">
          <mxGeometry x="540.0047368421052" y="86.00000000000006" width="136.8421052631579" height="46" as="geometry" />
        </mxCell>
        <mxCell id="34" value="Use" style="endArrow=open;endSize=12;dashed=1;html=1;rounded=0;exitX=1;exitY=0.5;exitDx=0;exitDy=0;entryX=0;entryY=0.5;entryDx=0;entryDy=0;" parent="24" source="28" target="27" edge="1">
          <mxGeometry width="160" relative="1" as="geometry">
            <mxPoint x="302.10526315789474" y="413" as="sourcePoint" />
            <mxPoint x="131.57894736842104" y="466" as="targetPoint" />
          </mxGeometry>
        </mxCell>
        <mxCell id="37" value="Use" style="endArrow=open;endSize=12;dashed=1;html=1;rounded=0;exitX=0.5;exitY=1;exitDx=0;exitDy=0;entryX=0.5;entryY=0;entryDx=0;entryDy=0;" parent="24" source="29" target="27" edge="1">
          <mxGeometry width="160" relative="1" as="geometry">
            <mxPoint x="200" y="93" as="sourcePoint" />
            <mxPoint x="357.89473684210526" y="130" as="targetPoint" />
          </mxGeometry>
        </mxCell>
        <mxCell id="38" value="Use" style="endArrow=open;endSize=12;dashed=1;html=1;rounded=0;exitX=0.5;exitY=1;exitDx=0;exitDy=0;entryX=0.5;entryY=0;entryDx=0;entryDy=0;" parent="24" source="29" target="28" edge="1">
          <mxGeometry width="160" relative="1" as="geometry">
            <mxPoint x="229.4736842105263" y="96" as="sourcePoint" />
            <mxPoint x="373.6842105263158" y="140" as="targetPoint" />
          </mxGeometry>
        </mxCell>
        <mxCell id="39" value="Use" style="endArrow=open;endSize=12;dashed=1;html=1;rounded=0;exitX=1;exitY=0.5;exitDx=0;exitDy=0;entryX=0;entryY=0.5;entryDx=0;entryDy=0;" parent="24" source="27" target="33" edge="1">
          <mxGeometry width="160" relative="1" as="geometry">
            <mxPoint x="229.4736842105263" y="96" as="sourcePoint" />
            <mxPoint x="373.6842105263158" y="140" as="targetPoint" />
          </mxGeometry>
        </mxCell>
        <mxCell id="fQwHnzjn4_1FMHBZw5N8-58" value="&lt;p style=&quot;margin:0px;margin-top:4px;text-align:center;&quot;&gt;&lt;b&gt;WaitingInstance&lt;/b&gt;&lt;/p&gt;&lt;hr size=&quot;1&quot;&gt;&lt;div style=&quot;height:2px;&quot;&gt;&lt;/div&gt;" style="verticalAlign=top;align=left;overflow=fill;fontSize=12;fontFamily=Helvetica;html=1;whiteSpace=wrap;" parent="24" vertex="1">
          <mxGeometry x="151.30473684210523" y="260" width="136.8421052631579" height="46" as="geometry" />
        </mxCell>
        <mxCell id="fQwHnzjn4_1FMHBZw5N8-59" value="Use" style="endArrow=open;endSize=12;dashed=1;html=1;rounded=0;exitX=0.5;exitY=1;exitDx=0;exitDy=0;entryX=0.5;entryY=0;entryDx=0;entryDy=0;" parent="24" source="27" target="fQwHnzjn4_1FMHBZw5N8-58" edge="1">
          <mxGeometry width="160" relative="1" as="geometry">
            <mxPoint x="442" y="163" as="sourcePoint" />
            <mxPoint x="550" y="117" as="targetPoint" />
          </mxGeometry>
        </mxCell>
        <mxCell id="ytyHKj4IFuMLeDcZhLf2-65" value="&lt;p style=&quot;margin:0px;margin-top:4px;text-align:center;&quot;&gt;&lt;b&gt;ClassicInstanceManager&lt;/b&gt;&lt;/p&gt;&lt;hr size=&quot;1&quot;&gt;&lt;div style=&quot;height:2px;&quot;&gt;&lt;/div&gt;" style="verticalAlign=top;align=left;overflow=fill;fontSize=12;fontFamily=Helvetica;html=1;whiteSpace=wrap;" parent="24" vertex="1">
          <mxGeometry x="420" y="206" width="150" height="46" as="geometry" />
        </mxCell>
        <mxCell id="ytyHKj4IFuMLeDcZhLf2-64" value="&lt;p style=&quot;margin:0px;margin-top:4px;text-align:center;&quot;&gt;&lt;b&gt;TimeLimitInstanceManager&lt;/b&gt;&lt;/p&gt;&lt;hr size=&quot;1&quot;&gt;&lt;div style=&quot;height:2px;&quot;&gt;&lt;/div&gt;" style="verticalAlign=top;align=left;overflow=fill;fontSize=12;fontFamily=Helvetica;html=1;whiteSpace=wrap;" parent="24" vertex="1">
          <mxGeometry x="590" y="252" width="169.85" height="46" as="geometry" />
        </mxCell>
        <mxCell id="ytyHKj4IFuMLeDcZhLf2-66" value="" style="endArrow=block;endFill=0;endSize=12;html=1;rounded=0;exitX=0.5;exitY=0;exitDx=0;exitDy=0;entryX=0.5;entryY=1;entryDx=0;entryDy=0;" parent="24" source="ytyHKj4IFuMLeDcZhLf2-65" target="33" edge="1">
          <mxGeometry width="160" relative="1" as="geometry">
            <mxPoint x="550" y="130" as="sourcePoint" />
            <mxPoint x="710" y="130" as="targetPoint" />
          </mxGeometry>
        </mxCell>
        <mxCell id="ytyHKj4IFuMLeDcZhLf2-71" value="Use" style="endArrow=open;endSize=12;dashed=1;html=1;rounded=0;exitX=1;exitY=0.5;exitDx=0;exitDy=0;entryX=0;entryY=0.5;entryDx=0;entryDy=0;" parent="24" source="fQwHnzjn4_1FMHBZw5N8-58" target="33" edge="1">
          <mxGeometry width="160" relative="1" as="geometry">
            <mxPoint x="318" y="216" as="sourcePoint" />
            <mxPoint x="158" y="270" as="targetPoint" />
          </mxGeometry>
        </mxCell>
        <mxCell id="41" value="" style="group;recursiveResize=0;" parent="2" vertex="1" connectable="0">
          <mxGeometry x="20" y="770" width="800" height="280" as="geometry" />
        </mxCell>
        <mxCell id="42" value="" style="shape=folder;fontStyle=1;spacingTop=10;tabWidth=120;tabHeight=29;tabPosition=left;html=1;whiteSpace=wrap;" parent="41" vertex="1">
          <mxGeometry y="0.47" width="800" height="279.53" as="geometry" />
        </mxCell>
        <mxCell id="43" value="&lt;b&gt;Images Differences&lt;/b&gt;" style="text;html=1;strokeColor=none;fillColor=none;align=center;verticalAlign=middle;whiteSpace=wrap;rounded=0;" parent="41" vertex="1">
          <mxGeometry y="10" width="120" height="14.090625000000001" as="geometry" />
        </mxCell>
        <mxCell id="44" value="&lt;p style=&quot;margin:0px;margin-top:4px;text-align:center;&quot;&gt;&lt;b&gt;ImagesDifferencesService&lt;/b&gt;&lt;/p&gt;&lt;hr size=&quot;1&quot;&gt;&lt;div style=&quot;height:2px;&quot;&gt;&lt;/div&gt;" style="verticalAlign=top;align=left;overflow=fill;fontSize=12;fontFamily=Helvetica;html=1;whiteSpace=wrap;" parent="41" vertex="1">
          <mxGeometry x="570" y="160" width="170" height="46" as="geometry" />
        </mxCell>
        <mxCell id="45" value="&lt;p style=&quot;margin:0px;margin-top:4px;text-align:center;&quot;&gt;&lt;b&gt;ImagesDifferencesController&lt;/b&gt;&lt;/p&gt;&lt;hr size=&quot;1&quot;&gt;&lt;div style=&quot;height:2px;&quot;&gt;&lt;/div&gt;" style="verticalAlign=top;align=left;overflow=fill;fontSize=12;fontFamily=Helvetica;html=1;whiteSpace=wrap;" parent="41" vertex="1">
          <mxGeometry x="110" y="172" width="190" height="46" as="geometry" />
        </mxCell>
        <mxCell id="46" value="&lt;p style=&quot;margin:0px;margin-top:4px;text-align:center;&quot;&gt;&lt;b&gt;ImagesDifferencesModule&lt;/b&gt;&lt;/p&gt;&lt;hr size=&quot;1&quot;&gt;&lt;div style=&quot;height:2px;&quot;&gt;&lt;/div&gt;" style="verticalAlign=top;align=left;overflow=fill;fontSize=12;fontFamily=Helvetica;html=1;whiteSpace=wrap;" parent="41" vertex="1">
          <mxGeometry x="266" y="70" width="158.26" height="46" as="geometry" />
        </mxCell>
        <mxCell id="47" value="Use" style="endArrow=open;endSize=12;dashed=1;html=1;rounded=0;exitX=1;exitY=0.5;exitDx=0;exitDy=0;entryX=0.5;entryY=0;entryDx=0;entryDy=0;" parent="41" source="46" target="44" edge="1">
          <mxGeometry width="160" relative="1" as="geometry">
            <mxPoint x="440" y="-180" as="sourcePoint" />
            <mxPoint x="600" y="-180" as="targetPoint" />
          </mxGeometry>
        </mxCell>
        <mxCell id="48" value="Use" style="endArrow=open;endSize=12;dashed=1;html=1;rounded=0;exitX=0;exitY=0.5;exitDx=0;exitDy=0;entryX=0.5;entryY=0;entryDx=0;entryDy=0;" parent="41" source="46" target="45" edge="1">
          <mxGeometry width="160" relative="1" as="geometry">
            <mxPoint x="408" y="113" as="sourcePoint" />
            <mxPoint x="490" y="113" as="targetPoint" />
          </mxGeometry>
        </mxCell>
        <mxCell id="49" value="Use" style="endArrow=open;endSize=12;dashed=1;html=1;rounded=0;exitX=1;exitY=0.5;exitDx=0;exitDy=0;" parent="41" source="45" target="44" edge="1">
          <mxGeometry width="160" relative="1" as="geometry">
            <mxPoint x="280" y="223" as="sourcePoint" />
            <mxPoint x="480" y="110" as="targetPoint" />
          </mxGeometry>
        </mxCell>
        <mxCell id="53" value="Use" style="endArrow=open;endSize=12;dashed=1;html=1;rounded=0;exitX=0.5;exitY=0;exitDx=0;exitDy=0;entryX=0.5;entryY=1;entryDx=0;entryDy=0;" parent="2" source="29" target="11" edge="1">
          <mxGeometry width="160" relative="1" as="geometry">
            <mxPoint x="238" y="496" as="sourcePoint" />
            <mxPoint x="375" y="540" as="targetPoint" />
          </mxGeometry>
        </mxCell>
        <mxCell id="54" value="Use" style="endArrow=open;endSize=12;dashed=1;html=1;rounded=0;exitX=0.5;exitY=0;exitDx=0;exitDy=0;entryX=0.5;entryY=1;entryDx=0;entryDy=0;" parent="2" source="27" target="8" edge="1">
          <mxGeometry width="160" relative="1" as="geometry">
            <mxPoint x="440" y="563" as="sourcePoint" />
            <mxPoint x="560" y="563" as="targetPoint" />
          </mxGeometry>
        </mxCell>
        <mxCell id="55" value="Use" style="endArrow=open;endSize=12;dashed=1;html=1;rounded=0;exitX=0.713;exitY=1.012;exitDx=0;exitDy=0;entryX=1;entryY=0.5;entryDx=0;entryDy=0;exitPerimeter=0;" parent="2" source="11" target="29" edge="1">
          <mxGeometry width="160" relative="1" as="geometry">
            <mxPoint x="551" y="298" as="sourcePoint" />
            <mxPoint x="462" y="196" as="targetPoint" />
          </mxGeometry>
        </mxCell>
        <mxCell id="56" value="Use" style="endArrow=open;endSize=12;dashed=1;html=1;rounded=0;exitX=0.75;exitY=1;exitDx=0;exitDy=0;entryX=0.5;entryY=0;entryDx=0;entryDy=0;" parent="2" source="11" target="46" edge="1">
          <mxGeometry width="160" relative="1" as="geometry">
            <mxPoint x="574" y="345" as="sourcePoint" />
            <mxPoint x="302" y="473" as="targetPoint" />
          </mxGeometry>
        </mxCell>
        <mxCell id="57" value="Use" style="endArrow=open;endSize=12;dashed=1;html=1;rounded=0;exitX=0.75;exitY=1;exitDx=0;exitDy=0;entryX=0.75;entryY=0;entryDx=0;entryDy=0;" parent="2" source="8" target="27" edge="1">
          <mxGeometry width="160" relative="1" as="geometry">
            <mxPoint x="375" y="540" as="sourcePoint" />
            <mxPoint x="740" y="263" as="targetPoint" />
          </mxGeometry>
        </mxCell>
        <mxCell id="58" value="Use" style="endArrow=open;endSize=12;dashed=1;html=1;rounded=0;exitX=0.75;exitY=1;exitDx=0;exitDy=0;entryX=0.871;entryY=-0.016;entryDx=0;entryDy=0;entryPerimeter=0;" parent="2" source="8" target="44" edge="1">
          <mxGeometry width="160" relative="1" as="geometry">
            <mxPoint x="770" y="263" as="sourcePoint" />
            <mxPoint x="408" y="540" as="targetPoint" />
          </mxGeometry>
        </mxCell>
        <mxCell id="fQwHnzjn4_1FMHBZw5N8-68" value="" style="shape=folder;fontStyle=1;spacingTop=10;tabWidth=130;tabHeight=20;tabPosition=left;html=1;whiteSpace=wrap;" parent="2" vertex="1">
          <mxGeometry x="20" y="1080.84" width="780" height="279.16" as="geometry" />
        </mxCell>
        <mxCell id="fQwHnzjn4_1FMHBZw5N8-69" value="&lt;b&gt;Time Configuration&lt;/b&gt;" style="text;html=1;strokeColor=none;fillColor=none;align=center;verticalAlign=middle;whiteSpace=wrap;rounded=0;" parent="2" vertex="1">
          <mxGeometry x="20" y="1080.8400000000001" width="120" height="25.05" as="geometry" />
        </mxCell>
        <mxCell id="fQwHnzjn4_1FMHBZw5N8-70" value="&lt;p style=&quot;margin:0px;margin-top:4px;text-align:center;&quot;&gt;&lt;b&gt;TimeConfigController&lt;/b&gt;&lt;/p&gt;&lt;hr size=&quot;1&quot;&gt;&lt;div style=&quot;height:2px;&quot;&gt;&lt;/div&gt;" style="verticalAlign=top;align=left;overflow=fill;fontSize=12;fontFamily=Helvetica;html=1;whiteSpace=wrap;" parent="2" vertex="1">
          <mxGeometry x="170" y="1140.0000000000002" width="185.87" height="46" as="geometry" />
        </mxCell>
        <mxCell id="fQwHnzjn4_1FMHBZw5N8-73" value="&lt;p style=&quot;margin:0px;margin-top:4px;text-align:center;&quot;&gt;&lt;b&gt;TimeConfigModule&lt;/b&gt;&lt;/p&gt;&lt;hr size=&quot;1&quot;&gt;&lt;div style=&quot;height:2px;&quot;&gt;&lt;/div&gt;" style="verticalAlign=top;align=left;overflow=fill;fontSize=12;fontFamily=Helvetica;html=1;whiteSpace=wrap;" parent="2" vertex="1">
          <mxGeometry x="470" y="1280" width="185.87" height="46" as="geometry" />
        </mxCell>
        <mxCell id="fQwHnzjn4_1FMHBZw5N8-74" value="&lt;p style=&quot;margin:0px;margin-top:4px;text-align:center;&quot;&gt;&lt;b&gt;TimeConfigService&lt;/b&gt;&lt;/p&gt;&lt;hr size=&quot;1&quot;&gt;&lt;div style=&quot;height:2px;&quot;&gt;&lt;/div&gt;" style="verticalAlign=top;align=left;overflow=fill;fontSize=12;fontFamily=Helvetica;html=1;whiteSpace=wrap;" parent="2" vertex="1">
          <mxGeometry x="600" y="1140" width="175.87" height="46" as="geometry" />
        </mxCell>
        <mxCell id="fQwHnzjn4_1FMHBZw5N8-75" value="Use" style="endArrow=open;endSize=12;dashed=1;html=1;rounded=0;exitX=0.5;exitY=0;exitDx=0;exitDy=0;entryX=0.5;entryY=1;entryDx=0;entryDy=0;" parent="2" source="fQwHnzjn4_1FMHBZw5N8-73" target="fQwHnzjn4_1FMHBZw5N8-74" edge="1">
          <mxGeometry width="160" relative="1" as="geometry">
            <mxPoint x="720.4300000000001" y="1203" as="sourcePoint" />
            <mxPoint x="545.4300000000001" y="1266" as="targetPoint" />
          </mxGeometry>
        </mxCell>
        <mxCell id="fQwHnzjn4_1FMHBZw5N8-76" value="Use" style="endArrow=open;endSize=12;dashed=1;html=1;rounded=0;exitX=0.5;exitY=0;exitDx=0;exitDy=0;entryX=0.5;entryY=1;entryDx=0;entryDy=0;" parent="2" source="fQwHnzjn4_1FMHBZw5N8-73" target="fQwHnzjn4_1FMHBZw5N8-70" edge="1">
          <mxGeometry width="160" relative="1" as="geometry">
            <mxPoint x="645" y="962" as="sourcePoint" />
            <mxPoint x="470" y="1025" as="targetPoint" />
          </mxGeometry>
        </mxCell>
        <mxCell id="fQwHnzjn4_1FMHBZw5N8-77" value="Use" style="endArrow=open;endSize=12;dashed=1;html=1;rounded=0;exitX=1;exitY=0.5;exitDx=0;exitDy=0;entryX=0;entryY=0.5;entryDx=0;entryDy=0;" parent="2" source="fQwHnzjn4_1FMHBZw5N8-70" target="fQwHnzjn4_1FMHBZw5N8-74" edge="1">
          <mxGeometry width="160" relative="1" as="geometry">
            <mxPoint x="643" y="1290" as="sourcePoint" />
            <mxPoint x="493" y="1243" as="targetPoint" />
          </mxGeometry>
        </mxCell>
        <mxCell id="fQwHnzjn4_1FMHBZw5N8-82" value="Use" style="endArrow=open;endSize=12;dashed=1;html=1;rounded=0;exitX=0.614;exitY=1.04;exitDx=0;exitDy=0;entryX=0.388;entryY=0.011;entryDx=0;entryDy=0;exitPerimeter=0;entryPerimeter=0;" parent="2" source="27" target="fQwHnzjn4_1FMHBZw5N8-74" edge="1">
          <mxGeometry width="160" relative="1" as="geometry">
            <mxPoint x="408" y="616" as="sourcePoint" />
            <mxPoint x="121" y="1324" as="targetPoint" />
          </mxGeometry>
        </mxCell>
        <mxCell id="ytyHKj4IFuMLeDcZhLf2-69" value="Use" style="endArrow=open;endSize=12;dashed=1;html=1;rounded=0;exitX=0.5;exitY=0;exitDx=0;exitDy=0;entryX=0.5;entryY=1;entryDx=0;entryDy=0;" parent="2" source="ytyHKj4IFuMLeDcZhLf2-65" target="8" edge="1">
          <mxGeometry width="160" relative="1" as="geometry">
            <mxPoint x="604" y="344" as="sourcePoint" />
            <mxPoint x="430" y="850" as="targetPoint" />
          </mxGeometry>
        </mxCell>
        <mxCell id="ytyHKj4IFuMLeDcZhLf2-70" value="Use" style="endArrow=open;endSize=12;dashed=1;html=1;rounded=0;exitX=0.5;exitY=0;exitDx=0;exitDy=0;entryX=0.5;entryY=1;entryDx=0;entryDy=0;" parent="2" source="ytyHKj4IFuMLeDcZhLf2-64" target="8" edge="1">
          <mxGeometry width="160" relative="1" as="geometry">
            <mxPoint x="614" y="354" as="sourcePoint" />
            <mxPoint x="440" y="860" as="targetPoint" />
          </mxGeometry>
        </mxCell>
        <mxCell id="ytyHKj4IFuMLeDcZhLf2-72" value="&lt;p style=&quot;margin:0px;margin-top:4px;text-align:center;&quot;&gt;&lt;b&gt;TimeConfigSchema&lt;/b&gt;&lt;/p&gt;&lt;hr size=&quot;1&quot;&gt;&lt;div style=&quot;height:2px;&quot;&gt;&lt;/div&gt;" style="verticalAlign=top;align=left;overflow=fill;fontSize=12;fontFamily=Helvetica;html=1;whiteSpace=wrap;" parent="2" vertex="1">
          <mxGeometry x="150" y="1260" width="185.87" height="46" as="geometry" />
        </mxCell>
        <mxCell id="ytyHKj4IFuMLeDcZhLf2-73" value="Use" style="endArrow=open;endSize=12;dashed=1;html=1;rounded=0;exitX=0.432;exitY=1;exitDx=0;exitDy=0;entryX=1;entryY=0.5;entryDx=0;entryDy=0;exitPerimeter=0;" parent="2" source="fQwHnzjn4_1FMHBZw5N8-74" target="ytyHKj4IFuMLeDcZhLf2-72" edge="1">
          <mxGeometry width="160" relative="1" as="geometry">
            <mxPoint x="643" y="1290" as="sourcePoint" />
            <mxPoint x="698" y="1180" as="targetPoint" />
          </mxGeometry>
        </mxCell>
        <mxCell id="ytyHKj4IFuMLeDcZhLf2-74" value="Use" style="endArrow=open;endSize=12;dashed=1;html=1;rounded=0;exitX=0.5;exitY=1;exitDx=0;exitDy=0;entryX=0.5;entryY=0;entryDx=0;entryDy=0;" parent="2" source="29" target="fQwHnzjn4_1FMHBZw5N8-73" edge="1">
          <mxGeometry width="160" relative="1" as="geometry">
            <mxPoint x="249" y="526" as="sourcePoint" />
            <mxPoint x="338" y="600" as="targetPoint" />
          </mxGeometry>
        </mxCell>
        <mxCell id="ytyHKj4IFuMLeDcZhLf2-76" value="Use" style="endArrow=open;endSize=12;dashed=1;html=1;rounded=0;exitX=0;exitY=0.5;exitDx=0;exitDy=0;entryX=1;entryY=0.5;entryDx=0;entryDy=0;" parent="2" source="fQwHnzjn4_1FMHBZw5N8-73" target="ytyHKj4IFuMLeDcZhLf2-72" edge="1">
          <mxGeometry width="160" relative="1" as="geometry">
            <mxPoint x="643" y="1290" as="sourcePoint" />
            <mxPoint x="420" y="1216" as="targetPoint" />
          </mxGeometry>
        </mxCell>
        <mxCell id="ytyHKj4IFuMLeDcZhLf2-77" value="Use" style="endArrow=open;endSize=12;dashed=1;html=1;rounded=0;exitX=0.5;exitY=0;exitDx=0;exitDy=0;entryX=0.5;entryY=1;entryDx=0;entryDy=0;" parent="2" source="33" target="8" edge="1">
          <mxGeometry width="160" relative="1" as="geometry">
            <mxPoint x="715" y="646" as="sourcePoint" />
            <mxPoint x="750" y="263" as="targetPoint" />
          </mxGeometry>
        </mxCell>
        <mxCell id="2YHDmQeHBiadndmg6NSc-70" value="" style="group" vertex="1" connectable="0" parent="2">
          <mxGeometry x="1020" y="710" width="590" height="340" as="geometry" />
        </mxCell>
        <mxCell id="2YHDmQeHBiadndmg6NSc-71" value="" style="shape=folder;fontStyle=1;spacingTop=10;tabWidth=100;tabHeight=29;tabPosition=left;html=1;whiteSpace=wrap;" vertex="1" parent="2YHDmQeHBiadndmg6NSc-70">
          <mxGeometry y="0.84" width="590" height="339.16" as="geometry" />
        </mxCell>
        <mxCell id="2YHDmQeHBiadndmg6NSc-72" value="&lt;b&gt;Static Images&lt;/b&gt;" style="text;html=1;strokeColor=none;fillColor=none;align=center;verticalAlign=middle;whiteSpace=wrap;rounded=0;" vertex="1" parent="2YHDmQeHBiadndmg6NSc-70">
          <mxGeometry width="73.75" height="25.05" as="geometry" />
        </mxCell>
        <mxCell id="2YHDmQeHBiadndmg6NSc-73" value="&lt;p style=&quot;margin:0px;margin-top:4px;text-align:center;&quot;&gt;&lt;b&gt;StaticImagesService&lt;/b&gt;&lt;/p&gt;&lt;hr size=&quot;1&quot;&gt;&lt;div style=&quot;height:2px;&quot;&gt;&lt;/div&gt;" style="verticalAlign=top;align=left;overflow=fill;fontSize=12;fontFamily=Helvetica;html=1;whiteSpace=wrap;" vertex="1" parent="2YHDmQeHBiadndmg6NSc-70">
          <mxGeometry x="405.625" y="174" width="103.25" height="46" as="geometry" />
        </mxCell>
        <mxCell id="2YHDmQeHBiadndmg6NSc-75" value="&lt;p style=&quot;margin:0px;margin-top:4px;text-align:center;&quot;&gt;&lt;b&gt;StaticImagesController&lt;/b&gt;&lt;/p&gt;&lt;hr size=&quot;1&quot;&gt;&lt;div style=&quot;height:2px;&quot;&gt;&lt;/div&gt;" style="verticalAlign=top;align=left;overflow=fill;fontSize=12;fontFamily=Helvetica;html=1;whiteSpace=wrap;" vertex="1" parent="2YHDmQeHBiadndmg6NSc-70">
          <mxGeometry x="242.09175000000002" y="80" width="119.28325000000001" height="46" as="geometry" />
        </mxCell>
        <mxCell id="2YHDmQeHBiadndmg6NSc-76" value="&lt;p style=&quot;line-height: 70%;&quot;&gt;&lt;/p&gt;&lt;div style=&quot;text-align: center; line-height: 90%;&quot;&gt;&lt;b style=&quot;background-color: initial; border-color: var(--border-color);&quot;&gt;&lt;b style=&quot;background-color: initial;&quot;&gt;StaticImagesModule&lt;/b&gt;&lt;/b&gt;&lt;/div&gt;&lt;hr style=&quot;line-height: 90%;&quot; size=&quot;1&quot;&gt;&lt;div style=&quot;height: 2px; line-height: 90%;&quot;&gt;&lt;/div&gt;&lt;p&gt;&lt;/p&gt;" style="verticalAlign=top;align=left;overflow=fill;fontSize=12;fontFamily=Helvetica;html=1;whiteSpace=wrap;" vertex="1" parent="2YHDmQeHBiadndmg6NSc-70">
          <mxGeometry x="201.625125" y="220" width="105.8165" height="46" as="geometry" />
        </mxCell>
        <mxCell id="2YHDmQeHBiadndmg6NSc-77" value="Use" style="endArrow=open;endSize=12;dashed=1;html=1;rounded=0;exitX=1;exitY=0.5;exitDx=0;exitDy=0;entryX=0.5;entryY=0;entryDx=0;entryDy=0;" edge="1" parent="2YHDmQeHBiadndmg6NSc-70" source="2YHDmQeHBiadndmg6NSc-75" target="2YHDmQeHBiadndmg6NSc-73">
          <mxGeometry width="160" relative="1" as="geometry">
            <mxPoint x="160.775" y="390" as="sourcePoint" />
            <mxPoint x="327.45000000000005" y="147" as="targetPoint" />
          </mxGeometry>
        </mxCell>
        <mxCell id="2YHDmQeHBiadndmg6NSc-78" value="Use" style="endArrow=open;endSize=12;dashed=1;html=1;rounded=0;exitX=0.5;exitY=0;exitDx=0;exitDy=0;entryX=0.75;entryY=1;entryDx=0;entryDy=0;" edge="1" parent="2YHDmQeHBiadndmg6NSc-70" source="2YHDmQeHBiadndmg6NSc-76" target="2YHDmQeHBiadndmg6NSc-75">
          <mxGeometry width="160" relative="1" as="geometry">
            <mxPoint x="351.7875" y="113" as="sourcePoint" />
            <mxPoint x="486.75000000000006" y="273" as="targetPoint" />
          </mxGeometry>
        </mxCell>
        <mxCell id="2YHDmQeHBiadndmg6NSc-79" value="Use" style="endArrow=open;endSize=12;dashed=1;html=1;rounded=0;exitX=1;exitY=0.5;exitDx=0;exitDy=0;entryX=0.5;entryY=1;entryDx=0;entryDy=0;" edge="1" parent="2YHDmQeHBiadndmg6NSc-70" source="2YHDmQeHBiadndmg6NSc-76" target="2YHDmQeHBiadndmg6NSc-73">
          <mxGeometry width="160" relative="1" as="geometry">
            <mxPoint x="391.6125" y="238" as="sourcePoint" />
            <mxPoint x="325.975" y="136" as="targetPoint" />
          </mxGeometry>
        </mxCell>
        <mxCell id="2YHDmQeHBiadndmg6NSc-58" value="" style="group" vertex="1" connectable="0" parent="2">
          <mxGeometry x="1020" y="330" width="630" height="340" as="geometry" />
        </mxCell>
        <mxCell id="2YHDmQeHBiadndmg6NSc-59" value="" style="shape=folder;fontStyle=1;spacingTop=10;tabWidth=100;tabHeight=29;tabPosition=left;html=1;whiteSpace=wrap;" vertex="1" parent="2YHDmQeHBiadndmg6NSc-58">
          <mxGeometry y="0.84" width="630" height="339.16" as="geometry" />
        </mxCell>
        <mxCell id="2YHDmQeHBiadndmg6NSc-60" value="&lt;b&gt;History&lt;/b&gt;" style="text;html=1;strokeColor=none;fillColor=none;align=center;verticalAlign=middle;whiteSpace=wrap;rounded=0;" vertex="1" parent="2YHDmQeHBiadndmg6NSc-58">
          <mxGeometry width="78.75" height="25.05" as="geometry" />
        </mxCell>
        <mxCell id="2YHDmQeHBiadndmg6NSc-61" value="&lt;p style=&quot;margin:0px;margin-top:4px;text-align:center;&quot;&gt;&lt;b&gt;HistoryService&lt;/b&gt;&lt;/p&gt;&lt;hr size=&quot;1&quot;&gt;&lt;div style=&quot;height:2px;&quot;&gt;&lt;/div&gt;" style="verticalAlign=top;align=left;overflow=fill;fontSize=12;fontFamily=Helvetica;html=1;whiteSpace=wrap;" vertex="1" parent="2YHDmQeHBiadndmg6NSc-58">
          <mxGeometry x="85.005" y="220" width="110.25" height="46" as="geometry" />
        </mxCell>
        <mxCell id="2YHDmQeHBiadndmg6NSc-62" value="&lt;p style=&quot;margin:0px;margin-top:4px;text-align:center;&quot;&gt;&lt;b&gt;HistorySchema&lt;/b&gt;&lt;/p&gt;&lt;hr size=&quot;1&quot;&gt;&lt;div style=&quot;height:2px;&quot;&gt;&lt;/div&gt;" style="verticalAlign=top;align=left;overflow=fill;fontSize=12;fontFamily=Helvetica;html=1;whiteSpace=wrap;" vertex="1" parent="2YHDmQeHBiadndmg6NSc-58">
          <mxGeometry x="55.125" y="80" width="118.125" height="46" as="geometry" />
        </mxCell>
        <mxCell id="2YHDmQeHBiadndmg6NSc-63" value="&lt;p style=&quot;margin:0px;margin-top:4px;text-align:center;&quot;&gt;&lt;b&gt;HistoryController&lt;/b&gt;&lt;/p&gt;&lt;hr size=&quot;1&quot;&gt;&lt;div style=&quot;height:2px;&quot;&gt;&lt;/div&gt;" style="verticalAlign=top;align=left;overflow=fill;fontSize=12;fontFamily=Helvetica;html=1;whiteSpace=wrap;" vertex="1" parent="2YHDmQeHBiadndmg6NSc-58">
          <mxGeometry x="258.50475" y="80" width="127.37025" height="46" as="geometry" />
        </mxCell>
        <mxCell id="2YHDmQeHBiadndmg6NSc-64" value="&lt;p style=&quot;line-height: 70%;&quot;&gt;&lt;/p&gt;&lt;div style=&quot;text-align: center; line-height: 90%;&quot;&gt;&lt;b style=&quot;background-color: initial; border-color: var(--border-color);&quot;&gt;History&lt;b style=&quot;background-color: initial;&quot;&gt;Module&lt;/b&gt;&lt;/b&gt;&lt;/div&gt;&lt;hr style=&quot;line-height: 90%;&quot; size=&quot;1&quot;&gt;&lt;div style=&quot;height: 2px; line-height: 90%;&quot;&gt;&lt;/div&gt;&lt;p&gt;&lt;/p&gt;" style="verticalAlign=top;align=left;overflow=fill;fontSize=12;fontFamily=Helvetica;html=1;whiteSpace=wrap;" vertex="1" parent="2YHDmQeHBiadndmg6NSc-58">
          <mxGeometry x="340.004625" y="270" width="112.99049999999998" height="46" as="geometry" />
        </mxCell>
        <mxCell id="2YHDmQeHBiadndmg6NSc-65" value="Use" style="endArrow=open;endSize=12;dashed=1;html=1;rounded=0;exitX=1;exitY=0.5;exitDx=0;exitDy=0;entryX=0.5;entryY=0;entryDx=0;entryDy=0;" edge="1" parent="2YHDmQeHBiadndmg6NSc-58" source="2YHDmQeHBiadndmg6NSc-63" target="2YHDmQeHBiadndmg6NSc-61">
          <mxGeometry width="160" relative="1" as="geometry">
            <mxPoint x="171.67499999999998" y="390" as="sourcePoint" />
            <mxPoint x="349.65" y="147" as="targetPoint" />
          </mxGeometry>
        </mxCell>
        <mxCell id="2YHDmQeHBiadndmg6NSc-66" value="Use" style="endArrow=open;endSize=12;dashed=1;html=1;rounded=0;exitX=0.5;exitY=0;exitDx=0;exitDy=0;entryX=0.75;entryY=1;entryDx=0;entryDy=0;" edge="1" parent="2YHDmQeHBiadndmg6NSc-58" source="2YHDmQeHBiadndmg6NSc-64" target="2YHDmQeHBiadndmg6NSc-63">
          <mxGeometry width="160" relative="1" as="geometry">
            <mxPoint x="375.6375" y="113" as="sourcePoint" />
            <mxPoint x="519.75" y="273" as="targetPoint" />
          </mxGeometry>
        </mxCell>
        <mxCell id="2YHDmQeHBiadndmg6NSc-67" value="Use" style="endArrow=open;endSize=12;dashed=1;html=1;rounded=0;exitX=0;exitY=0.5;exitDx=0;exitDy=0;entryX=0.5;entryY=1;entryDx=0;entryDy=0;" edge="1" parent="2YHDmQeHBiadndmg6NSc-58" source="2YHDmQeHBiadndmg6NSc-64" target="2YHDmQeHBiadndmg6NSc-61">
          <mxGeometry width="160" relative="1" as="geometry">
            <mxPoint x="418.16249999999997" y="238" as="sourcePoint" />
            <mxPoint x="348.075" y="136" as="targetPoint" />
          </mxGeometry>
        </mxCell>
        <mxCell id="2YHDmQeHBiadndmg6NSc-68" value="Use" style="endArrow=open;endSize=12;dashed=1;html=1;rounded=0;exitX=0.5;exitY=0;exitDx=0;exitDy=0;entryX=0.5;entryY=1;entryDx=0;entryDy=0;" edge="1" parent="2YHDmQeHBiadndmg6NSc-58" source="2YHDmQeHBiadndmg6NSc-64" target="2YHDmQeHBiadndmg6NSc-62">
          <mxGeometry width="160" relative="1" as="geometry">
            <mxPoint x="418.16249999999997" y="238" as="sourcePoint" />
            <mxPoint x="348.075" y="136" as="targetPoint" />
          </mxGeometry>
        </mxCell>
        <mxCell id="2YHDmQeHBiadndmg6NSc-69" value="Use" style="endArrow=open;endSize=12;dashed=1;html=1;rounded=0;exitX=0.357;exitY=0;exitDx=0;exitDy=0;entryX=0.5;entryY=1;entryDx=0;entryDy=0;exitPerimeter=0;" edge="1" parent="2YHDmQeHBiadndmg6NSc-58" source="2YHDmQeHBiadndmg6NSc-61" target="2YHDmQeHBiadndmg6NSc-62">
          <mxGeometry width="160" relative="1" as="geometry">
            <mxPoint x="418.16249999999997" y="238" as="sourcePoint" />
            <mxPoint x="348.075" y="136" as="targetPoint" />
          </mxGeometry>
        </mxCell>
        <mxCell id="2YHDmQeHBiadndmg6NSc-84" value="Use" style="endArrow=open;endSize=12;dashed=1;html=1;rounded=0;exitX=1;exitY=0.5;exitDx=0;exitDy=0;entryX=0;entryY=0.5;entryDx=0;entryDy=0;" edge="1" parent="2" source="33" target="2YHDmQeHBiadndmg6NSc-61">
          <mxGeometry width="160" relative="1" as="geometry">
            <mxPoint x="685" y="290" as="sourcePoint" />
            <mxPoint x="748" y="939" as="targetPoint" />
          </mxGeometry>
        </mxCell>
        <mxCell id="2YHDmQeHBiadndmg6NSc-85" value="Use" style="endArrow=open;endSize=12;dashed=1;html=1;rounded=0;exitX=1;exitY=0.5;exitDx=0;exitDy=0;entryX=0;entryY=0.5;entryDx=0;entryDy=0;" edge="1" parent="2" source="ytyHKj4IFuMLeDcZhLf2-65" target="2YHDmQeHBiadndmg6NSc-61">
          <mxGeometry width="160" relative="1" as="geometry">
            <mxPoint x="707" y="549" as="sourcePoint" />
            <mxPoint x="1115" y="583" as="targetPoint" />
          </mxGeometry>
        </mxCell>
        <mxCell id="2YHDmQeHBiadndmg6NSc-86" value="Use" style="endArrow=open;endSize=12;dashed=1;html=1;rounded=0;exitX=1;exitY=0.5;exitDx=0;exitDy=0;entryX=0;entryY=0.5;entryDx=0;entryDy=0;" edge="1" parent="2" source="ytyHKj4IFuMLeDcZhLf2-64" target="2YHDmQeHBiadndmg6NSc-61">
          <mxGeometry width="160" relative="1" as="geometry">
            <mxPoint x="717" y="559" as="sourcePoint" />
            <mxPoint x="1125" y="593" as="targetPoint" />
          </mxGeometry>
        </mxCell>
        <mxCell id="ytyHKj4IFuMLeDcZhLf2-68" value="" style="endArrow=block;endFill=0;endSize=12;html=1;rounded=0;exitX=0.5;exitY=0;exitDx=0;exitDy=0;" parent="1" source="ytyHKj4IFuMLeDcZhLf2-64" edge="1">
          <mxGeometry width="160" relative="1" as="geometry">
            <mxPoint x="-265" y="1796" as="sourcePoint" />
            <mxPoint x="-160" y="1710" as="targetPoint" />
          </mxGeometry>
        </mxCell>
        <mxCell id="2YHDmQeHBiadndmg6NSc-87" value="" style="group;recursiveResize=0;" vertex="1" connectable="0" parent="1">
          <mxGeometry x="-770" y="1240" width="1680" height="1440" as="geometry" />
        </mxCell>
        <mxCell id="2YHDmQeHBiadndmg6NSc-88" value="" style="shape=folder;fontStyle=1;spacingTop=10;tabWidth=90;tabHeight=29;tabPosition=left;html=1;whiteSpace=wrap;" vertex="1" parent="2YHDmQeHBiadndmg6NSc-87">
          <mxGeometry y="1" width="1680" height="1439" as="geometry" />
        </mxCell>
        <mxCell id="2YHDmQeHBiadndmg6NSc-89" value="&lt;b&gt;Serveur&lt;/b&gt;" style="text;html=1;strokeColor=none;fillColor=none;align=center;verticalAlign=middle;whiteSpace=wrap;rounded=0;" vertex="1" parent="2YHDmQeHBiadndmg6NSc-87">
          <mxGeometry width="60" height="30" as="geometry" />
        </mxCell>
        <mxCell id="2YHDmQeHBiadndmg6NSc-90" value="" style="group" vertex="1" connectable="0" parent="2YHDmQeHBiadndmg6NSc-87">
          <mxGeometry x="20" y="60" width="800" height="340" as="geometry" />
        </mxCell>
        <mxCell id="2YHDmQeHBiadndmg6NSc-91" value="" style="shape=folder;fontStyle=1;spacingTop=10;tabWidth=100;tabHeight=29;tabPosition=left;html=1;whiteSpace=wrap;" vertex="1" parent="2YHDmQeHBiadndmg6NSc-90">
          <mxGeometry y="0.84" width="800" height="339.16" as="geometry" />
        </mxCell>
        <mxCell id="2YHDmQeHBiadndmg6NSc-92" value="&lt;b&gt;Game Template&lt;/b&gt;" style="text;html=1;strokeColor=none;fillColor=none;align=center;verticalAlign=middle;whiteSpace=wrap;rounded=0;" vertex="1" parent="2YHDmQeHBiadndmg6NSc-90">
          <mxGeometry width="100" height="25.05" as="geometry" />
        </mxCell>
        <mxCell id="2YHDmQeHBiadndmg6NSc-93" value="&lt;p style=&quot;margin:0px;margin-top:4px;text-align:center;&quot;&gt;&lt;b&gt;GameTemplateService&lt;/b&gt;&lt;/p&gt;&lt;hr size=&quot;1&quot;&gt;&lt;div style=&quot;height:2px;&quot;&gt;&lt;/div&gt;" style="verticalAlign=top;align=left;overflow=fill;fontSize=12;fontFamily=Helvetica;html=1;whiteSpace=wrap;" vertex="1" parent="2YHDmQeHBiadndmg6NSc-90">
          <mxGeometry x="550" y="174" width="140" height="46" as="geometry" />
        </mxCell>
        <mxCell id="2YHDmQeHBiadndmg6NSc-94" value="&lt;p style=&quot;margin:0px;margin-top:4px;text-align:center;&quot;&gt;&lt;b&gt;GameTemplateSchema&lt;/b&gt;&lt;/p&gt;&lt;hr size=&quot;1&quot;&gt;&lt;div style=&quot;height:2px;&quot;&gt;&lt;/div&gt;" style="verticalAlign=top;align=left;overflow=fill;fontSize=12;fontFamily=Helvetica;html=1;whiteSpace=wrap;" vertex="1" parent="2YHDmQeHBiadndmg6NSc-90">
          <mxGeometry x="70" y="80" width="150" height="46" as="geometry" />
        </mxCell>
        <mxCell id="2YHDmQeHBiadndmg6NSc-95" value="&lt;p style=&quot;margin:0px;margin-top:4px;text-align:center;&quot;&gt;&lt;b&gt;GameTemplateController&lt;/b&gt;&lt;/p&gt;&lt;hr size=&quot;1&quot;&gt;&lt;div style=&quot;height:2px;&quot;&gt;&lt;/div&gt;" style="verticalAlign=top;align=left;overflow=fill;fontSize=12;fontFamily=Helvetica;html=1;whiteSpace=wrap;" vertex="1" parent="2YHDmQeHBiadndmg6NSc-90">
          <mxGeometry x="328.26" y="80" width="161.74" height="46" as="geometry" />
        </mxCell>
        <mxCell id="2YHDmQeHBiadndmg6NSc-96" value="&lt;p style=&quot;margin:0px;margin-top:4px;text-align:center;&quot;&gt;&lt;b&gt;GameTemplateModule&lt;/b&gt;&lt;/p&gt;&lt;hr size=&quot;1&quot;&gt;&lt;div style=&quot;height:2px;&quot;&gt;&lt;/div&gt;" style="verticalAlign=top;align=left;overflow=fill;fontSize=12;fontFamily=Helvetica;html=1;whiteSpace=wrap;" vertex="1" parent="2YHDmQeHBiadndmg6NSc-90">
          <mxGeometry x="273.39" y="220" width="143.48" height="46" as="geometry" />
        </mxCell>
        <mxCell id="2YHDmQeHBiadndmg6NSc-97" value="Use" style="endArrow=open;endSize=12;dashed=1;html=1;rounded=0;exitX=1;exitY=0.5;exitDx=0;exitDy=0;entryX=0.5;entryY=0;entryDx=0;entryDy=0;" edge="1" parent="2YHDmQeHBiadndmg6NSc-90" source="2YHDmQeHBiadndmg6NSc-95" target="2YHDmQeHBiadndmg6NSc-93">
          <mxGeometry width="160" relative="1" as="geometry">
            <mxPoint x="218" y="390" as="sourcePoint" />
            <mxPoint x="444" y="147" as="targetPoint" />
          </mxGeometry>
        </mxCell>
        <mxCell id="2YHDmQeHBiadndmg6NSc-98" value="Use" style="endArrow=open;endSize=12;dashed=1;html=1;rounded=0;exitX=0.5;exitY=0;exitDx=0;exitDy=0;entryX=0.75;entryY=1;entryDx=0;entryDy=0;" edge="1" parent="2YHDmQeHBiadndmg6NSc-90" source="2YHDmQeHBiadndmg6NSc-96" target="2YHDmQeHBiadndmg6NSc-95">
          <mxGeometry width="160" relative="1" as="geometry">
            <mxPoint x="477" y="113" as="sourcePoint" />
            <mxPoint x="660" y="273" as="targetPoint" />
          </mxGeometry>
        </mxCell>
        <mxCell id="2YHDmQeHBiadndmg6NSc-99" value="Use" style="endArrow=open;endSize=12;dashed=1;html=1;rounded=0;exitX=1;exitY=0.5;exitDx=0;exitDy=0;entryX=0.5;entryY=1;entryDx=0;entryDy=0;" edge="1" parent="2YHDmQeHBiadndmg6NSc-90" source="2YHDmQeHBiadndmg6NSc-96" target="2YHDmQeHBiadndmg6NSc-93">
          <mxGeometry width="160" relative="1" as="geometry">
            <mxPoint x="531" y="238" as="sourcePoint" />
            <mxPoint x="442" y="136" as="targetPoint" />
          </mxGeometry>
        </mxCell>
        <mxCell id="2YHDmQeHBiadndmg6NSc-100" value="Use" style="endArrow=open;endSize=12;dashed=1;html=1;rounded=0;exitX=0.5;exitY=0;exitDx=0;exitDy=0;entryX=0.5;entryY=1;entryDx=0;entryDy=0;" edge="1" parent="2YHDmQeHBiadndmg6NSc-90" source="2YHDmQeHBiadndmg6NSc-96" target="2YHDmQeHBiadndmg6NSc-94">
          <mxGeometry width="160" relative="1" as="geometry">
            <mxPoint x="531" y="238" as="sourcePoint" />
            <mxPoint x="442" y="136" as="targetPoint" />
          </mxGeometry>
        </mxCell>
        <mxCell id="2YHDmQeHBiadndmg6NSc-101" value="Use" style="endArrow=open;endSize=12;dashed=1;html=1;rounded=0;exitX=0;exitY=0.5;exitDx=0;exitDy=0;entryX=0.5;entryY=1;entryDx=0;entryDy=0;" edge="1" parent="2YHDmQeHBiadndmg6NSc-90" source="2YHDmQeHBiadndmg6NSc-93" target="2YHDmQeHBiadndmg6NSc-94">
          <mxGeometry width="160" relative="1" as="geometry">
            <mxPoint x="531" y="238" as="sourcePoint" />
            <mxPoint x="442" y="136" as="targetPoint" />
          </mxGeometry>
        </mxCell>
        <mxCell id="2YHDmQeHBiadndmg6NSc-102" value="" style="group" vertex="1" connectable="0" parent="2YHDmQeHBiadndmg6NSc-87">
          <mxGeometry x="20" y="430" width="800" height="320" as="geometry" />
        </mxCell>
        <mxCell id="2YHDmQeHBiadndmg6NSc-103" value="" style="shape=folder;fontStyle=1;spacingTop=10;tabWidth=90;tabHeight=29;tabPosition=left;html=1;whiteSpace=wrap;" vertex="1" parent="2YHDmQeHBiadndmg6NSc-102">
          <mxGeometry y="0.84" width="800" height="319.16" as="geometry" />
        </mxCell>
        <mxCell id="2YHDmQeHBiadndmg6NSc-104" value="&lt;b&gt;Game Manager&lt;/b&gt;" style="text;html=1;strokeColor=none;fillColor=none;align=center;verticalAlign=middle;whiteSpace=wrap;rounded=0;" vertex="1" parent="2YHDmQeHBiadndmg6NSc-102">
          <mxGeometry width="94.73684210526315" height="25.05" as="geometry" />
        </mxCell>
        <mxCell id="2YHDmQeHBiadndmg6NSc-105" value="&lt;p style=&quot;margin:0px;margin-top:4px;text-align:center;&quot;&gt;&lt;b&gt;GameManagerService&lt;/b&gt;&lt;/p&gt;&lt;hr size=&quot;1&quot;&gt;&lt;div style=&quot;height:2px;&quot;&gt;&lt;/div&gt;" style="verticalAlign=top;align=left;overflow=fill;fontSize=12;fontFamily=Helvetica;html=1;whiteSpace=wrap;" vertex="1" parent="2YHDmQeHBiadndmg6NSc-102">
          <mxGeometry x="239.9968421052631" y="160" width="136.8421052631579" height="46" as="geometry" />
        </mxCell>
        <mxCell id="2YHDmQeHBiadndmg6NSc-106" value="&lt;p style=&quot;margin:0px;margin-top:4px;text-align:center;&quot;&gt;&lt;b&gt;GameManagerGateway&lt;/b&gt;&lt;/p&gt;&lt;hr size=&quot;1&quot;&gt;&lt;div style=&quot;height:2px;&quot;&gt;&lt;/div&gt;" style="verticalAlign=top;align=left;overflow=fill;fontSize=12;fontFamily=Helvetica;html=1;whiteSpace=wrap;" vertex="1" parent="2YHDmQeHBiadndmg6NSc-102">
          <mxGeometry x="3.935263157894731" y="114" width="147.36842105263156" height="46" as="geometry" />
        </mxCell>
        <mxCell id="2YHDmQeHBiadndmg6NSc-107" value="&lt;p style=&quot;margin:0px;margin-top:4px;text-align:center;&quot;&gt;&lt;b&gt;GameManagerModule&lt;/b&gt;&lt;/p&gt;&lt;hr size=&quot;1&quot;&gt;&lt;div style=&quot;height:2px;&quot;&gt;&lt;/div&gt;" style="verticalAlign=top;align=left;overflow=fill;fontSize=12;fontFamily=Helvetica;html=1;whiteSpace=wrap;" vertex="1" parent="2YHDmQeHBiadndmg6NSc-102">
          <mxGeometry x="151.30526315789473" y="40" width="135.01052631578946" height="46" as="geometry" />
        </mxCell>
        <mxCell id="2YHDmQeHBiadndmg6NSc-108" value="&lt;p style=&quot;margin:0px;margin-top:4px;text-align:center;&quot;&gt;&lt;b&gt;BaseInstanceManager&lt;/b&gt;&lt;/p&gt;&lt;hr size=&quot;1&quot;&gt;&lt;div style=&quot;height:2px;&quot;&gt;&lt;/div&gt;" style="verticalAlign=top;align=left;overflow=fill;fontSize=12;fontFamily=Helvetica;html=1;whiteSpace=wrap;" vertex="1" parent="2YHDmQeHBiadndmg6NSc-102">
          <mxGeometry x="540.0047368421052" y="86.00000000000006" width="136.8421052631579" height="46" as="geometry" />
        </mxCell>
        <mxCell id="2YHDmQeHBiadndmg6NSc-109" value="Use" style="endArrow=open;endSize=12;dashed=1;html=1;rounded=0;exitX=1;exitY=0.5;exitDx=0;exitDy=0;entryX=0;entryY=0.5;entryDx=0;entryDy=0;" edge="1" parent="2YHDmQeHBiadndmg6NSc-102" source="2YHDmQeHBiadndmg6NSc-106" target="2YHDmQeHBiadndmg6NSc-105">
          <mxGeometry width="160" relative="1" as="geometry">
            <mxPoint x="302.10526315789474" y="413" as="sourcePoint" />
            <mxPoint x="131.57894736842104" y="466" as="targetPoint" />
          </mxGeometry>
        </mxCell>
        <mxCell id="2YHDmQeHBiadndmg6NSc-110" value="Use" style="endArrow=open;endSize=12;dashed=1;html=1;rounded=0;exitX=0.5;exitY=1;exitDx=0;exitDy=0;entryX=0.5;entryY=0;entryDx=0;entryDy=0;" edge="1" parent="2YHDmQeHBiadndmg6NSc-102" source="2YHDmQeHBiadndmg6NSc-107" target="2YHDmQeHBiadndmg6NSc-105">
          <mxGeometry width="160" relative="1" as="geometry">
            <mxPoint x="200" y="93" as="sourcePoint" />
            <mxPoint x="357.89473684210526" y="130" as="targetPoint" />
          </mxGeometry>
        </mxCell>
        <mxCell id="2YHDmQeHBiadndmg6NSc-111" value="Use" style="endArrow=open;endSize=12;dashed=1;html=1;rounded=0;exitX=0.5;exitY=1;exitDx=0;exitDy=0;entryX=0.5;entryY=0;entryDx=0;entryDy=0;" edge="1" parent="2YHDmQeHBiadndmg6NSc-102" source="2YHDmQeHBiadndmg6NSc-107" target="2YHDmQeHBiadndmg6NSc-106">
          <mxGeometry width="160" relative="1" as="geometry">
            <mxPoint x="229.4736842105263" y="96" as="sourcePoint" />
            <mxPoint x="373.6842105263158" y="140" as="targetPoint" />
          </mxGeometry>
        </mxCell>
        <mxCell id="2YHDmQeHBiadndmg6NSc-112" value="Use" style="endArrow=open;endSize=12;dashed=1;html=1;rounded=0;exitX=1;exitY=0.5;exitDx=0;exitDy=0;entryX=0;entryY=0.5;entryDx=0;entryDy=0;" edge="1" parent="2YHDmQeHBiadndmg6NSc-102" source="2YHDmQeHBiadndmg6NSc-105" target="2YHDmQeHBiadndmg6NSc-108">
          <mxGeometry width="160" relative="1" as="geometry">
            <mxPoint x="229.4736842105263" y="96" as="sourcePoint" />
            <mxPoint x="373.6842105263158" y="140" as="targetPoint" />
          </mxGeometry>
        </mxCell>
        <mxCell id="2YHDmQeHBiadndmg6NSc-113" value="&lt;p style=&quot;margin:0px;margin-top:4px;text-align:center;&quot;&gt;&lt;b&gt;WaitingInstance&lt;/b&gt;&lt;/p&gt;&lt;hr size=&quot;1&quot;&gt;&lt;div style=&quot;height:2px;&quot;&gt;&lt;/div&gt;" style="verticalAlign=top;align=left;overflow=fill;fontSize=12;fontFamily=Helvetica;html=1;whiteSpace=wrap;" vertex="1" parent="2YHDmQeHBiadndmg6NSc-102">
          <mxGeometry x="151.30473684210523" y="260" width="136.8421052631579" height="46" as="geometry" />
        </mxCell>
        <mxCell id="2YHDmQeHBiadndmg6NSc-114" value="Use" style="endArrow=open;endSize=12;dashed=1;html=1;rounded=0;exitX=0.5;exitY=1;exitDx=0;exitDy=0;entryX=0.5;entryY=0;entryDx=0;entryDy=0;" edge="1" parent="2YHDmQeHBiadndmg6NSc-102" source="2YHDmQeHBiadndmg6NSc-105" target="2YHDmQeHBiadndmg6NSc-113">
          <mxGeometry width="160" relative="1" as="geometry">
            <mxPoint x="442" y="163" as="sourcePoint" />
            <mxPoint x="550" y="117" as="targetPoint" />
          </mxGeometry>
        </mxCell>
        <mxCell id="2YHDmQeHBiadndmg6NSc-115" value="&lt;p style=&quot;margin:0px;margin-top:4px;text-align:center;&quot;&gt;&lt;b&gt;ClassicInstanceManager&lt;/b&gt;&lt;/p&gt;&lt;hr size=&quot;1&quot;&gt;&lt;div style=&quot;height:2px;&quot;&gt;&lt;/div&gt;" style="verticalAlign=top;align=left;overflow=fill;fontSize=12;fontFamily=Helvetica;html=1;whiteSpace=wrap;" vertex="1" parent="2YHDmQeHBiadndmg6NSc-102">
          <mxGeometry x="420" y="206" width="150" height="46" as="geometry" />
        </mxCell>
        <mxCell id="2YHDmQeHBiadndmg6NSc-116" value="&lt;p style=&quot;margin:0px;margin-top:4px;text-align:center;&quot;&gt;&lt;b&gt;TimeLimitInstanceManager&lt;/b&gt;&lt;/p&gt;&lt;hr size=&quot;1&quot;&gt;&lt;div style=&quot;height:2px;&quot;&gt;&lt;/div&gt;" style="verticalAlign=top;align=left;overflow=fill;fontSize=12;fontFamily=Helvetica;html=1;whiteSpace=wrap;" vertex="1" parent="2YHDmQeHBiadndmg6NSc-102">
          <mxGeometry x="590" y="252" width="169.85" height="46" as="geometry" />
        </mxCell>
        <mxCell id="2YHDmQeHBiadndmg6NSc-117" value="" style="endArrow=block;endFill=0;endSize=12;html=1;rounded=0;exitX=0.5;exitY=0;exitDx=0;exitDy=0;entryX=0.5;entryY=1;entryDx=0;entryDy=0;" edge="1" parent="2YHDmQeHBiadndmg6NSc-102" source="2YHDmQeHBiadndmg6NSc-115" target="2YHDmQeHBiadndmg6NSc-108">
          <mxGeometry width="160" relative="1" as="geometry">
            <mxPoint x="550" y="130" as="sourcePoint" />
            <mxPoint x="710" y="130" as="targetPoint" />
          </mxGeometry>
        </mxCell>
        <mxCell id="2YHDmQeHBiadndmg6NSc-118" value="Use" style="endArrow=open;endSize=12;dashed=1;html=1;rounded=0;exitX=1;exitY=0.5;exitDx=0;exitDy=0;entryX=0;entryY=0.5;entryDx=0;entryDy=0;" edge="1" parent="2YHDmQeHBiadndmg6NSc-102" source="2YHDmQeHBiadndmg6NSc-113" target="2YHDmQeHBiadndmg6NSc-108">
          <mxGeometry width="160" relative="1" as="geometry">
            <mxPoint x="318" y="216" as="sourcePoint" />
            <mxPoint x="158" y="270" as="targetPoint" />
          </mxGeometry>
        </mxCell>
        <mxCell id="2YHDmQeHBiadndmg6NSc-119" value="" style="group;recursiveResize=0;" vertex="1" connectable="0" parent="2YHDmQeHBiadndmg6NSc-87">
          <mxGeometry x="20" y="770" width="800" height="280" as="geometry" />
        </mxCell>
        <mxCell id="2YHDmQeHBiadndmg6NSc-120" value="" style="shape=folder;fontStyle=1;spacingTop=10;tabWidth=120;tabHeight=29;tabPosition=left;html=1;whiteSpace=wrap;" vertex="1" parent="2YHDmQeHBiadndmg6NSc-119">
          <mxGeometry y="0.47" width="800" height="279.53" as="geometry" />
        </mxCell>
        <mxCell id="2YHDmQeHBiadndmg6NSc-121" value="&lt;b&gt;Images Differences&lt;/b&gt;" style="text;html=1;strokeColor=none;fillColor=none;align=center;verticalAlign=middle;whiteSpace=wrap;rounded=0;" vertex="1" parent="2YHDmQeHBiadndmg6NSc-119">
          <mxGeometry y="10" width="120" height="14.090625000000001" as="geometry" />
        </mxCell>
        <mxCell id="2YHDmQeHBiadndmg6NSc-122" value="&lt;p style=&quot;margin:0px;margin-top:4px;text-align:center;&quot;&gt;&lt;b&gt;ImagesDifferencesService&lt;/b&gt;&lt;/p&gt;&lt;hr size=&quot;1&quot;&gt;&lt;div style=&quot;height:2px;&quot;&gt;&lt;/div&gt;" style="verticalAlign=top;align=left;overflow=fill;fontSize=12;fontFamily=Helvetica;html=1;whiteSpace=wrap;" vertex="1" parent="2YHDmQeHBiadndmg6NSc-119">
          <mxGeometry x="570" y="160" width="170" height="46" as="geometry" />
        </mxCell>
        <mxCell id="2YHDmQeHBiadndmg6NSc-123" value="&lt;p style=&quot;margin:0px;margin-top:4px;text-align:center;&quot;&gt;&lt;b&gt;ImagesDifferencesController&lt;/b&gt;&lt;/p&gt;&lt;hr size=&quot;1&quot;&gt;&lt;div style=&quot;height:2px;&quot;&gt;&lt;/div&gt;" style="verticalAlign=top;align=left;overflow=fill;fontSize=12;fontFamily=Helvetica;html=1;whiteSpace=wrap;" vertex="1" parent="2YHDmQeHBiadndmg6NSc-119">
          <mxGeometry x="110" y="172" width="190" height="46" as="geometry" />
        </mxCell>
        <mxCell id="2YHDmQeHBiadndmg6NSc-124" value="&lt;p style=&quot;margin:0px;margin-top:4px;text-align:center;&quot;&gt;&lt;b&gt;ImagesDifferencesModule&lt;/b&gt;&lt;/p&gt;&lt;hr size=&quot;1&quot;&gt;&lt;div style=&quot;height:2px;&quot;&gt;&lt;/div&gt;" style="verticalAlign=top;align=left;overflow=fill;fontSize=12;fontFamily=Helvetica;html=1;whiteSpace=wrap;" vertex="1" parent="2YHDmQeHBiadndmg6NSc-119">
          <mxGeometry x="266" y="70" width="158.26" height="46" as="geometry" />
        </mxCell>
        <mxCell id="2YHDmQeHBiadndmg6NSc-125" value="Use" style="endArrow=open;endSize=12;dashed=1;html=1;rounded=0;exitX=1;exitY=0.5;exitDx=0;exitDy=0;entryX=0.5;entryY=0;entryDx=0;entryDy=0;" edge="1" parent="2YHDmQeHBiadndmg6NSc-119" source="2YHDmQeHBiadndmg6NSc-124" target="2YHDmQeHBiadndmg6NSc-122">
          <mxGeometry width="160" relative="1" as="geometry">
            <mxPoint x="440" y="-180" as="sourcePoint" />
            <mxPoint x="600" y="-180" as="targetPoint" />
          </mxGeometry>
        </mxCell>
        <mxCell id="2YHDmQeHBiadndmg6NSc-126" value="Use" style="endArrow=open;endSize=12;dashed=1;html=1;rounded=0;exitX=0;exitY=0.5;exitDx=0;exitDy=0;entryX=0.5;entryY=0;entryDx=0;entryDy=0;" edge="1" parent="2YHDmQeHBiadndmg6NSc-119" source="2YHDmQeHBiadndmg6NSc-124" target="2YHDmQeHBiadndmg6NSc-123">
          <mxGeometry width="160" relative="1" as="geometry">
            <mxPoint x="408" y="113" as="sourcePoint" />
            <mxPoint x="490" y="113" as="targetPoint" />
          </mxGeometry>
        </mxCell>
        <mxCell id="2YHDmQeHBiadndmg6NSc-127" value="Use" style="endArrow=open;endSize=12;dashed=1;html=1;rounded=0;exitX=1;exitY=0.5;exitDx=0;exitDy=0;" edge="1" parent="2YHDmQeHBiadndmg6NSc-119" source="2YHDmQeHBiadndmg6NSc-123" target="2YHDmQeHBiadndmg6NSc-122">
          <mxGeometry width="160" relative="1" as="geometry">
            <mxPoint x="280" y="223" as="sourcePoint" />
            <mxPoint x="480" y="110" as="targetPoint" />
          </mxGeometry>
        </mxCell>
        <mxCell id="2YHDmQeHBiadndmg6NSc-128" value="Use" style="endArrow=open;endSize=12;dashed=1;html=1;rounded=0;exitX=0.5;exitY=0;exitDx=0;exitDy=0;entryX=0.5;entryY=1;entryDx=0;entryDy=0;" edge="1" parent="2YHDmQeHBiadndmg6NSc-87" source="2YHDmQeHBiadndmg6NSc-107" target="2YHDmQeHBiadndmg6NSc-96">
          <mxGeometry width="160" relative="1" as="geometry">
            <mxPoint x="238" y="496" as="sourcePoint" />
            <mxPoint x="375" y="540" as="targetPoint" />
          </mxGeometry>
        </mxCell>
        <mxCell id="2YHDmQeHBiadndmg6NSc-129" value="Use" style="endArrow=open;endSize=12;dashed=1;html=1;rounded=0;exitX=0.5;exitY=0;exitDx=0;exitDy=0;entryX=0.5;entryY=1;entryDx=0;entryDy=0;" edge="1" parent="2YHDmQeHBiadndmg6NSc-87" source="2YHDmQeHBiadndmg6NSc-105" target="2YHDmQeHBiadndmg6NSc-93">
          <mxGeometry width="160" relative="1" as="geometry">
            <mxPoint x="440" y="563" as="sourcePoint" />
            <mxPoint x="560" y="563" as="targetPoint" />
          </mxGeometry>
        </mxCell>
        <mxCell id="2YHDmQeHBiadndmg6NSc-130" value="Use" style="endArrow=open;endSize=12;dashed=1;html=1;rounded=0;exitX=0.713;exitY=1.012;exitDx=0;exitDy=0;entryX=1;entryY=0.5;entryDx=0;entryDy=0;exitPerimeter=0;" edge="1" parent="2YHDmQeHBiadndmg6NSc-87" source="2YHDmQeHBiadndmg6NSc-96" target="2YHDmQeHBiadndmg6NSc-107">
          <mxGeometry width="160" relative="1" as="geometry">
            <mxPoint x="551" y="298" as="sourcePoint" />
            <mxPoint x="462" y="196" as="targetPoint" />
          </mxGeometry>
        </mxCell>
        <mxCell id="2YHDmQeHBiadndmg6NSc-131" value="Use" style="endArrow=open;endSize=12;dashed=1;html=1;rounded=0;exitX=0.75;exitY=1;exitDx=0;exitDy=0;entryX=0.5;entryY=0;entryDx=0;entryDy=0;" edge="1" parent="2YHDmQeHBiadndmg6NSc-87" source="2YHDmQeHBiadndmg6NSc-96" target="2YHDmQeHBiadndmg6NSc-124">
          <mxGeometry width="160" relative="1" as="geometry">
            <mxPoint x="574" y="345" as="sourcePoint" />
            <mxPoint x="302" y="473" as="targetPoint" />
          </mxGeometry>
        </mxCell>
        <mxCell id="2YHDmQeHBiadndmg6NSc-132" value="Use" style="endArrow=open;endSize=12;dashed=1;html=1;rounded=0;exitX=0.75;exitY=1;exitDx=0;exitDy=0;entryX=0.75;entryY=0;entryDx=0;entryDy=0;" edge="1" parent="2YHDmQeHBiadndmg6NSc-87" source="2YHDmQeHBiadndmg6NSc-93" target="2YHDmQeHBiadndmg6NSc-105">
          <mxGeometry width="160" relative="1" as="geometry">
            <mxPoint x="375" y="540" as="sourcePoint" />
            <mxPoint x="740" y="263" as="targetPoint" />
          </mxGeometry>
        </mxCell>
        <mxCell id="2YHDmQeHBiadndmg6NSc-133" value="Use" style="endArrow=open;endSize=12;dashed=1;html=1;rounded=0;exitX=0.75;exitY=1;exitDx=0;exitDy=0;entryX=0.871;entryY=-0.016;entryDx=0;entryDy=0;entryPerimeter=0;" edge="1" parent="2YHDmQeHBiadndmg6NSc-87" source="2YHDmQeHBiadndmg6NSc-93" target="2YHDmQeHBiadndmg6NSc-122">
          <mxGeometry width="160" relative="1" as="geometry">
            <mxPoint x="770" y="263" as="sourcePoint" />
            <mxPoint x="408" y="540" as="targetPoint" />
          </mxGeometry>
        </mxCell>
        <mxCell id="2YHDmQeHBiadndmg6NSc-134" value="" style="shape=folder;fontStyle=1;spacingTop=10;tabWidth=130;tabHeight=20;tabPosition=left;html=1;whiteSpace=wrap;" vertex="1" parent="2YHDmQeHBiadndmg6NSc-87">
          <mxGeometry x="20" y="1080.84" width="780" height="279.16" as="geometry" />
        </mxCell>
        <mxCell id="2YHDmQeHBiadndmg6NSc-135" value="&lt;b&gt;Time Configuration&lt;/b&gt;" style="text;html=1;strokeColor=none;fillColor=none;align=center;verticalAlign=middle;whiteSpace=wrap;rounded=0;" vertex="1" parent="2YHDmQeHBiadndmg6NSc-87">
          <mxGeometry x="20" y="1080.8400000000001" width="120" height="25.05" as="geometry" />
        </mxCell>
        <mxCell id="2YHDmQeHBiadndmg6NSc-136" value="&lt;p style=&quot;margin:0px;margin-top:4px;text-align:center;&quot;&gt;&lt;b&gt;TimeConfigController&lt;/b&gt;&lt;/p&gt;&lt;hr size=&quot;1&quot;&gt;&lt;div style=&quot;height:2px;&quot;&gt;&lt;/div&gt;" style="verticalAlign=top;align=left;overflow=fill;fontSize=12;fontFamily=Helvetica;html=1;whiteSpace=wrap;" vertex="1" parent="2YHDmQeHBiadndmg6NSc-87">
          <mxGeometry x="170" y="1140.0000000000002" width="185.87" height="46" as="geometry" />
        </mxCell>
        <mxCell id="2YHDmQeHBiadndmg6NSc-137" value="&lt;p style=&quot;margin:0px;margin-top:4px;text-align:center;&quot;&gt;&lt;b&gt;TimeConfigModule&lt;/b&gt;&lt;/p&gt;&lt;hr size=&quot;1&quot;&gt;&lt;div style=&quot;height:2px;&quot;&gt;&lt;/div&gt;" style="verticalAlign=top;align=left;overflow=fill;fontSize=12;fontFamily=Helvetica;html=1;whiteSpace=wrap;" vertex="1" parent="2YHDmQeHBiadndmg6NSc-87">
          <mxGeometry x="470" y="1280" width="185.87" height="46" as="geometry" />
        </mxCell>
        <mxCell id="2YHDmQeHBiadndmg6NSc-138" value="&lt;p style=&quot;margin:0px;margin-top:4px;text-align:center;&quot;&gt;&lt;b&gt;TimeConfigService&lt;/b&gt;&lt;/p&gt;&lt;hr size=&quot;1&quot;&gt;&lt;div style=&quot;height:2px;&quot;&gt;&lt;/div&gt;" style="verticalAlign=top;align=left;overflow=fill;fontSize=12;fontFamily=Helvetica;html=1;whiteSpace=wrap;" vertex="1" parent="2YHDmQeHBiadndmg6NSc-87">
          <mxGeometry x="600" y="1140" width="175.87" height="46" as="geometry" />
        </mxCell>
        <mxCell id="2YHDmQeHBiadndmg6NSc-139" value="Use" style="endArrow=open;endSize=12;dashed=1;html=1;rounded=0;exitX=0.5;exitY=0;exitDx=0;exitDy=0;entryX=0.5;entryY=1;entryDx=0;entryDy=0;" edge="1" parent="2YHDmQeHBiadndmg6NSc-87" source="2YHDmQeHBiadndmg6NSc-137" target="2YHDmQeHBiadndmg6NSc-138">
          <mxGeometry width="160" relative="1" as="geometry">
            <mxPoint x="720.4300000000001" y="1203" as="sourcePoint" />
            <mxPoint x="545.4300000000001" y="1266" as="targetPoint" />
          </mxGeometry>
        </mxCell>
        <mxCell id="2YHDmQeHBiadndmg6NSc-140" value="Use" style="endArrow=open;endSize=12;dashed=1;html=1;rounded=0;exitX=0.5;exitY=0;exitDx=0;exitDy=0;entryX=0.5;entryY=1;entryDx=0;entryDy=0;" edge="1" parent="2YHDmQeHBiadndmg6NSc-87" source="2YHDmQeHBiadndmg6NSc-137" target="2YHDmQeHBiadndmg6NSc-136">
          <mxGeometry width="160" relative="1" as="geometry">
            <mxPoint x="645" y="962" as="sourcePoint" />
            <mxPoint x="470" y="1025" as="targetPoint" />
          </mxGeometry>
        </mxCell>
        <mxCell id="2YHDmQeHBiadndmg6NSc-141" value="Use" style="endArrow=open;endSize=12;dashed=1;html=1;rounded=0;exitX=1;exitY=0.5;exitDx=0;exitDy=0;entryX=0;entryY=0.5;entryDx=0;entryDy=0;" edge="1" parent="2YHDmQeHBiadndmg6NSc-87" source="2YHDmQeHBiadndmg6NSc-136" target="2YHDmQeHBiadndmg6NSc-138">
          <mxGeometry width="160" relative="1" as="geometry">
            <mxPoint x="643" y="1290" as="sourcePoint" />
            <mxPoint x="493" y="1243" as="targetPoint" />
          </mxGeometry>
        </mxCell>
        <mxCell id="2YHDmQeHBiadndmg6NSc-142" value="Use" style="endArrow=open;endSize=12;dashed=1;html=1;rounded=0;exitX=0.614;exitY=1.04;exitDx=0;exitDy=0;entryX=0.388;entryY=0.011;entryDx=0;entryDy=0;exitPerimeter=0;entryPerimeter=0;" edge="1" parent="2YHDmQeHBiadndmg6NSc-87" source="2YHDmQeHBiadndmg6NSc-105" target="2YHDmQeHBiadndmg6NSc-138">
          <mxGeometry width="160" relative="1" as="geometry">
            <mxPoint x="408" y="616" as="sourcePoint" />
            <mxPoint x="121" y="1324" as="targetPoint" />
          </mxGeometry>
        </mxCell>
        <mxCell id="2YHDmQeHBiadndmg6NSc-143" value="Use" style="endArrow=open;endSize=12;dashed=1;html=1;rounded=0;exitX=0.5;exitY=0;exitDx=0;exitDy=0;entryX=0.5;entryY=1;entryDx=0;entryDy=0;" edge="1" parent="2YHDmQeHBiadndmg6NSc-87" source="2YHDmQeHBiadndmg6NSc-115" target="2YHDmQeHBiadndmg6NSc-93">
          <mxGeometry width="160" relative="1" as="geometry">
            <mxPoint x="604" y="344" as="sourcePoint" />
            <mxPoint x="430" y="850" as="targetPoint" />
          </mxGeometry>
        </mxCell>
        <mxCell id="2YHDmQeHBiadndmg6NSc-144" value="Use" style="endArrow=open;endSize=12;dashed=1;html=1;rounded=0;exitX=0.5;exitY=0;exitDx=0;exitDy=0;entryX=0.5;entryY=1;entryDx=0;entryDy=0;" edge="1" parent="2YHDmQeHBiadndmg6NSc-87" source="2YHDmQeHBiadndmg6NSc-116" target="2YHDmQeHBiadndmg6NSc-93">
          <mxGeometry width="160" relative="1" as="geometry">
            <mxPoint x="614" y="354" as="sourcePoint" />
            <mxPoint x="440" y="860" as="targetPoint" />
          </mxGeometry>
        </mxCell>
        <mxCell id="2YHDmQeHBiadndmg6NSc-145" value="&lt;p style=&quot;margin:0px;margin-top:4px;text-align:center;&quot;&gt;&lt;b&gt;TimeConfigSchema&lt;/b&gt;&lt;/p&gt;&lt;hr size=&quot;1&quot;&gt;&lt;div style=&quot;height:2px;&quot;&gt;&lt;/div&gt;" style="verticalAlign=top;align=left;overflow=fill;fontSize=12;fontFamily=Helvetica;html=1;whiteSpace=wrap;" vertex="1" parent="2YHDmQeHBiadndmg6NSc-87">
          <mxGeometry x="150" y="1260" width="185.87" height="46" as="geometry" />
        </mxCell>
        <mxCell id="2YHDmQeHBiadndmg6NSc-146" value="Use" style="endArrow=open;endSize=12;dashed=1;html=1;rounded=0;exitX=0.432;exitY=1;exitDx=0;exitDy=0;entryX=1;entryY=0.5;entryDx=0;entryDy=0;exitPerimeter=0;" edge="1" parent="2YHDmQeHBiadndmg6NSc-87" source="2YHDmQeHBiadndmg6NSc-138" target="2YHDmQeHBiadndmg6NSc-145">
          <mxGeometry width="160" relative="1" as="geometry">
            <mxPoint x="643" y="1290" as="sourcePoint" />
            <mxPoint x="698" y="1180" as="targetPoint" />
          </mxGeometry>
        </mxCell>
        <mxCell id="2YHDmQeHBiadndmg6NSc-147" value="Use" style="endArrow=open;endSize=12;dashed=1;html=1;rounded=0;exitX=0.5;exitY=1;exitDx=0;exitDy=0;entryX=0.5;entryY=0;entryDx=0;entryDy=0;" edge="1" parent="2YHDmQeHBiadndmg6NSc-87" source="2YHDmQeHBiadndmg6NSc-107" target="2YHDmQeHBiadndmg6NSc-137">
          <mxGeometry width="160" relative="1" as="geometry">
            <mxPoint x="249" y="526" as="sourcePoint" />
            <mxPoint x="338" y="600" as="targetPoint" />
          </mxGeometry>
        </mxCell>
        <mxCell id="2YHDmQeHBiadndmg6NSc-148" value="Use" style="endArrow=open;endSize=12;dashed=1;html=1;rounded=0;exitX=0;exitY=0.5;exitDx=0;exitDy=0;entryX=1;entryY=0.5;entryDx=0;entryDy=0;" edge="1" parent="2YHDmQeHBiadndmg6NSc-87" source="2YHDmQeHBiadndmg6NSc-137" target="2YHDmQeHBiadndmg6NSc-145">
          <mxGeometry width="160" relative="1" as="geometry">
            <mxPoint x="643" y="1290" as="sourcePoint" />
            <mxPoint x="420" y="1216" as="targetPoint" />
          </mxGeometry>
        </mxCell>
        <mxCell id="2YHDmQeHBiadndmg6NSc-149" value="Use" style="endArrow=open;endSize=12;dashed=1;html=1;rounded=0;exitX=0.5;exitY=0;exitDx=0;exitDy=0;entryX=0.5;entryY=1;entryDx=0;entryDy=0;" edge="1" parent="2YHDmQeHBiadndmg6NSc-87" source="2YHDmQeHBiadndmg6NSc-108" target="2YHDmQeHBiadndmg6NSc-93">
          <mxGeometry width="160" relative="1" as="geometry">
            <mxPoint x="715" y="646" as="sourcePoint" />
            <mxPoint x="750" y="263" as="targetPoint" />
          </mxGeometry>
        </mxCell>
        <mxCell id="2YHDmQeHBiadndmg6NSc-150" value="" style="group" vertex="1" connectable="0" parent="2YHDmQeHBiadndmg6NSc-87">
          <mxGeometry x="1020" y="710" width="590" height="340" as="geometry" />
        </mxCell>
        <mxCell id="2YHDmQeHBiadndmg6NSc-151" value="" style="shape=folder;fontStyle=1;spacingTop=10;tabWidth=100;tabHeight=29;tabPosition=left;html=1;whiteSpace=wrap;" vertex="1" parent="2YHDmQeHBiadndmg6NSc-150">
          <mxGeometry y="0.84" width="590" height="339.16" as="geometry" />
        </mxCell>
        <mxCell id="2YHDmQeHBiadndmg6NSc-152" value="&lt;b&gt;Static Images&lt;/b&gt;" style="text;html=1;strokeColor=none;fillColor=none;align=center;verticalAlign=middle;whiteSpace=wrap;rounded=0;" vertex="1" parent="2YHDmQeHBiadndmg6NSc-150">
          <mxGeometry width="90" height="25.05" as="geometry" />
        </mxCell>
        <mxCell id="2YHDmQeHBiadndmg6NSc-153" value="&lt;p style=&quot;margin:0px;margin-top:4px;text-align:center;&quot;&gt;&lt;b&gt;StaticImagesService&lt;/b&gt;&lt;/p&gt;&lt;hr size=&quot;1&quot;&gt;&lt;div style=&quot;height:2px;&quot;&gt;&lt;/div&gt;" style="verticalAlign=top;align=left;overflow=fill;fontSize=12;fontFamily=Helvetica;html=1;whiteSpace=wrap;" vertex="1" parent="2YHDmQeHBiadndmg6NSc-150">
          <mxGeometry x="370" y="174" width="138.88" height="46" as="geometry" />
        </mxCell>
        <mxCell id="2YHDmQeHBiadndmg6NSc-154" value="&lt;p style=&quot;margin:0px;margin-top:4px;text-align:center;&quot;&gt;&lt;b&gt;StaticImagesController&lt;/b&gt;&lt;/p&gt;&lt;hr size=&quot;1&quot;&gt;&lt;div style=&quot;height:2px;&quot;&gt;&lt;/div&gt;" style="verticalAlign=top;align=left;overflow=fill;fontSize=12;fontFamily=Helvetica;html=1;whiteSpace=wrap;" vertex="1" parent="2YHDmQeHBiadndmg6NSc-150">
          <mxGeometry x="210" y="80" width="151.38" height="46" as="geometry" />
        </mxCell>
        <mxCell id="2YHDmQeHBiadndmg6NSc-155" value="&lt;p style=&quot;line-height: 70%;&quot;&gt;&lt;/p&gt;&lt;div style=&quot;text-align: center; line-height: 90%;&quot;&gt;&lt;b style=&quot;background-color: initial; border-color: var(--border-color);&quot;&gt;&lt;b style=&quot;background-color: initial;&quot;&gt;StaticImagesModule&lt;/b&gt;&lt;/b&gt;&lt;/div&gt;&lt;hr style=&quot;line-height: 90%;&quot; size=&quot;1&quot;&gt;&lt;div style=&quot;height: 2px; line-height: 90%;&quot;&gt;&lt;/div&gt;&lt;p&gt;&lt;/p&gt;" style="verticalAlign=top;align=left;overflow=fill;fontSize=12;fontFamily=Helvetica;html=1;whiteSpace=wrap;" vertex="1" parent="2YHDmQeHBiadndmg6NSc-150">
          <mxGeometry x="170" y="220" width="137.44" height="46" as="geometry" />
        </mxCell>
        <mxCell id="2YHDmQeHBiadndmg6NSc-156" value="Use" style="endArrow=open;endSize=12;dashed=1;html=1;rounded=0;exitX=1;exitY=0.5;exitDx=0;exitDy=0;entryX=0.5;entryY=0;entryDx=0;entryDy=0;" edge="1" parent="2YHDmQeHBiadndmg6NSc-150" source="2YHDmQeHBiadndmg6NSc-154" target="2YHDmQeHBiadndmg6NSc-153">
          <mxGeometry width="160" relative="1" as="geometry">
            <mxPoint x="160.775" y="390" as="sourcePoint" />
            <mxPoint x="327.45000000000005" y="147" as="targetPoint" />
          </mxGeometry>
        </mxCell>
        <mxCell id="2YHDmQeHBiadndmg6NSc-157" value="Use" style="endArrow=open;endSize=12;dashed=1;html=1;rounded=0;exitX=0.5;exitY=0;exitDx=0;exitDy=0;entryX=0.75;entryY=1;entryDx=0;entryDy=0;" edge="1" parent="2YHDmQeHBiadndmg6NSc-150" source="2YHDmQeHBiadndmg6NSc-155" target="2YHDmQeHBiadndmg6NSc-154">
          <mxGeometry width="160" relative="1" as="geometry">
            <mxPoint x="351.7875" y="113" as="sourcePoint" />
            <mxPoint x="486.75000000000006" y="273" as="targetPoint" />
          </mxGeometry>
        </mxCell>
        <mxCell id="2YHDmQeHBiadndmg6NSc-158" value="Use" style="endArrow=open;endSize=12;dashed=1;html=1;rounded=0;exitX=1;exitY=0.5;exitDx=0;exitDy=0;entryX=0.5;entryY=1;entryDx=0;entryDy=0;" edge="1" parent="2YHDmQeHBiadndmg6NSc-150" source="2YHDmQeHBiadndmg6NSc-155" target="2YHDmQeHBiadndmg6NSc-153">
          <mxGeometry width="160" relative="1" as="geometry">
            <mxPoint x="391.6125" y="238" as="sourcePoint" />
            <mxPoint x="325.975" y="136" as="targetPoint" />
          </mxGeometry>
        </mxCell>
        <mxCell id="2YHDmQeHBiadndmg6NSc-159" value="" style="group" vertex="1" connectable="0" parent="2YHDmQeHBiadndmg6NSc-87">
          <mxGeometry x="1020" y="330" width="630" height="340" as="geometry" />
        </mxCell>
        <mxCell id="2YHDmQeHBiadndmg6NSc-160" value="" style="shape=folder;fontStyle=1;spacingTop=10;tabWidth=100;tabHeight=29;tabPosition=left;html=1;whiteSpace=wrap;" vertex="1" parent="2YHDmQeHBiadndmg6NSc-159">
          <mxGeometry y="0.84" width="630" height="339.16" as="geometry" />
        </mxCell>
        <mxCell id="2YHDmQeHBiadndmg6NSc-161" value="&lt;b&gt;History&lt;/b&gt;" style="text;html=1;strokeColor=none;fillColor=none;align=center;verticalAlign=middle;whiteSpace=wrap;rounded=0;" vertex="1" parent="2YHDmQeHBiadndmg6NSc-159">
          <mxGeometry width="78.75" height="25.05" as="geometry" />
        </mxCell>
        <mxCell id="2YHDmQeHBiadndmg6NSc-162" value="&lt;p style=&quot;margin:0px;margin-top:4px;text-align:center;&quot;&gt;&lt;b&gt;HistoryService&lt;/b&gt;&lt;/p&gt;&lt;hr size=&quot;1&quot;&gt;&lt;div style=&quot;height:2px;&quot;&gt;&lt;/div&gt;" style="verticalAlign=top;align=left;overflow=fill;fontSize=12;fontFamily=Helvetica;html=1;whiteSpace=wrap;" vertex="1" parent="2YHDmQeHBiadndmg6NSc-159">
          <mxGeometry x="49.995" y="186" width="110.25" height="46" as="geometry" />
        </mxCell>
        <mxCell id="2YHDmQeHBiadndmg6NSc-163" value="&lt;p style=&quot;margin:0px;margin-top:4px;text-align:center;&quot;&gt;&lt;b&gt;HistorySchema&lt;/b&gt;&lt;/p&gt;&lt;hr size=&quot;1&quot;&gt;&lt;div style=&quot;height:2px;&quot;&gt;&lt;/div&gt;" style="verticalAlign=top;align=left;overflow=fill;fontSize=12;fontFamily=Helvetica;html=1;whiteSpace=wrap;" vertex="1" parent="2YHDmQeHBiadndmg6NSc-159">
          <mxGeometry x="55.125" y="80" width="118.125" height="46" as="geometry" />
        </mxCell>
        <mxCell id="2YHDmQeHBiadndmg6NSc-164" value="&lt;p style=&quot;margin:0px;margin-top:4px;text-align:center;&quot;&gt;&lt;b&gt;HistoryController&lt;/b&gt;&lt;/p&gt;&lt;hr size=&quot;1&quot;&gt;&lt;div style=&quot;height:2px;&quot;&gt;&lt;/div&gt;" style="verticalAlign=top;align=left;overflow=fill;fontSize=12;fontFamily=Helvetica;html=1;whiteSpace=wrap;" vertex="1" parent="2YHDmQeHBiadndmg6NSc-159">
          <mxGeometry x="258.50475" y="80" width="127.37025" height="46" as="geometry" />
        </mxCell>
        <mxCell id="2YHDmQeHBiadndmg6NSc-165" value="&lt;p style=&quot;line-height: 70%;&quot;&gt;&lt;/p&gt;&lt;div style=&quot;text-align: center; line-height: 90%;&quot;&gt;&lt;b style=&quot;background-color: initial; border-color: var(--border-color);&quot;&gt;History&lt;b style=&quot;background-color: initial;&quot;&gt;Module&lt;/b&gt;&lt;/b&gt;&lt;/div&gt;&lt;hr style=&quot;line-height: 90%;&quot; size=&quot;1&quot;&gt;&lt;div style=&quot;height: 2px; line-height: 90%;&quot;&gt;&lt;/div&gt;&lt;p&gt;&lt;/p&gt;" style="verticalAlign=top;align=left;overflow=fill;fontSize=12;fontFamily=Helvetica;html=1;whiteSpace=wrap;" vertex="1" parent="2YHDmQeHBiadndmg6NSc-159">
          <mxGeometry x="340.004625" y="270" width="112.99049999999998" height="46" as="geometry" />
        </mxCell>
        <mxCell id="2YHDmQeHBiadndmg6NSc-166" value="Use" style="endArrow=open;endSize=12;dashed=1;html=1;rounded=0;exitX=0.09;exitY=1.087;exitDx=0;exitDy=0;entryX=0.5;entryY=0;entryDx=0;entryDy=0;exitPerimeter=0;" edge="1" parent="2YHDmQeHBiadndmg6NSc-159" source="2YHDmQeHBiadndmg6NSc-164" target="2YHDmQeHBiadndmg6NSc-162">
          <mxGeometry width="160" relative="1" as="geometry">
            <mxPoint x="171.67499999999998" y="390" as="sourcePoint" />
            <mxPoint x="349.65" y="147" as="targetPoint" />
          </mxGeometry>
        </mxCell>
        <mxCell id="2YHDmQeHBiadndmg6NSc-167" value="Use" style="endArrow=open;endSize=12;dashed=1;html=1;rounded=0;exitX=0.5;exitY=0;exitDx=0;exitDy=0;entryX=0.75;entryY=1;entryDx=0;entryDy=0;" edge="1" parent="2YHDmQeHBiadndmg6NSc-159" source="2YHDmQeHBiadndmg6NSc-165" target="2YHDmQeHBiadndmg6NSc-164">
          <mxGeometry width="160" relative="1" as="geometry">
            <mxPoint x="375.6375" y="113" as="sourcePoint" />
            <mxPoint x="519.75" y="273" as="targetPoint" />
          </mxGeometry>
        </mxCell>
        <mxCell id="2YHDmQeHBiadndmg6NSc-168" value="Use" style="endArrow=open;endSize=12;dashed=1;html=1;rounded=0;exitX=0;exitY=0.5;exitDx=0;exitDy=0;entryX=0.5;entryY=1;entryDx=0;entryDy=0;" edge="1" parent="2YHDmQeHBiadndmg6NSc-159" source="2YHDmQeHBiadndmg6NSc-165" target="2YHDmQeHBiadndmg6NSc-162">
          <mxGeometry width="160" relative="1" as="geometry">
            <mxPoint x="418.16249999999997" y="238" as="sourcePoint" />
            <mxPoint x="348.075" y="136" as="targetPoint" />
          </mxGeometry>
        </mxCell>
        <mxCell id="2YHDmQeHBiadndmg6NSc-169" value="Use" style="endArrow=open;endSize=12;dashed=1;html=1;rounded=0;exitX=0.5;exitY=0;exitDx=0;exitDy=0;entryX=0.5;entryY=1;entryDx=0;entryDy=0;" edge="1" parent="2YHDmQeHBiadndmg6NSc-159" source="2YHDmQeHBiadndmg6NSc-165" target="2YHDmQeHBiadndmg6NSc-163">
          <mxGeometry width="160" relative="1" as="geometry">
            <mxPoint x="418.16249999999997" y="238" as="sourcePoint" />
            <mxPoint x="348.075" y="136" as="targetPoint" />
          </mxGeometry>
        </mxCell>
        <mxCell id="2YHDmQeHBiadndmg6NSc-170" value="Use" style="endArrow=open;endSize=12;dashed=1;html=1;rounded=0;exitX=0.357;exitY=0;exitDx=0;exitDy=0;entryX=0.5;entryY=1;entryDx=0;entryDy=0;exitPerimeter=0;" edge="1" parent="2YHDmQeHBiadndmg6NSc-159" source="2YHDmQeHBiadndmg6NSc-162" target="2YHDmQeHBiadndmg6NSc-163">
          <mxGeometry width="160" relative="1" as="geometry">
            <mxPoint x="418.16249999999997" y="238" as="sourcePoint" />
            <mxPoint x="348.075" y="136" as="targetPoint" />
          </mxGeometry>
        </mxCell>
        <mxCell id="2YHDmQeHBiadndmg6NSc-171" value="Use" style="endArrow=open;endSize=12;dashed=1;html=1;rounded=0;exitX=1;exitY=0.5;exitDx=0;exitDy=0;entryX=0;entryY=0.5;entryDx=0;entryDy=0;" edge="1" parent="2YHDmQeHBiadndmg6NSc-87" source="2YHDmQeHBiadndmg6NSc-108" target="2YHDmQeHBiadndmg6NSc-162">
          <mxGeometry width="160" relative="1" as="geometry">
            <mxPoint x="685" y="290" as="sourcePoint" />
            <mxPoint x="748" y="939" as="targetPoint" />
          </mxGeometry>
        </mxCell>
        <mxCell id="2YHDmQeHBiadndmg6NSc-172" value="Use" style="endArrow=open;endSize=12;dashed=1;html=1;rounded=0;exitX=1;exitY=0.5;exitDx=0;exitDy=0;entryX=0;entryY=0.5;entryDx=0;entryDy=0;" edge="1" parent="2YHDmQeHBiadndmg6NSc-87" source="2YHDmQeHBiadndmg6NSc-115" target="2YHDmQeHBiadndmg6NSc-162">
          <mxGeometry width="160" relative="1" as="geometry">
            <mxPoint x="707" y="549" as="sourcePoint" />
            <mxPoint x="1115" y="583" as="targetPoint" />
          </mxGeometry>
        </mxCell>
        <mxCell id="2YHDmQeHBiadndmg6NSc-173" value="Use" style="endArrow=open;endSize=12;dashed=1;html=1;rounded=0;exitX=1;exitY=0.5;exitDx=0;exitDy=0;entryX=0;entryY=0.5;entryDx=0;entryDy=0;" edge="1" parent="2YHDmQeHBiadndmg6NSc-87" source="2YHDmQeHBiadndmg6NSc-116" target="2YHDmQeHBiadndmg6NSc-162">
          <mxGeometry width="160" relative="1" as="geometry">
            <mxPoint x="717" y="559" as="sourcePoint" />
            <mxPoint x="1125" y="593" as="targetPoint" />
          </mxGeometry>
        </mxCell>
        <mxCell id="2YHDmQeHBiadndmg6NSc-174" value="Use" style="endArrow=open;endSize=12;dashed=1;html=1;rounded=0;exitX=1;exitY=0.75;exitDx=0;exitDy=0;entryX=0;entryY=0;entryDx=0;entryDy=0;" edge="1" parent="2YHDmQeHBiadndmg6NSc-87" source="2YHDmQeHBiadndmg6NSc-107" target="2YHDmQeHBiadndmg6NSc-162">
          <mxGeometry width="160" relative="1" as="geometry">
            <mxPoint x="249" y="480" as="sourcePoint" />
            <mxPoint x="375" y="336" as="targetPoint" />
          </mxGeometry>
        </mxCell>
      </root>
    </mxGraphModel>
  </diagram>
</mxfile>
